<svg width="24" height="24" viewBox="0 0 24 24" fill="none" xmlns="http://www.w3.org/2000/svg">
<g clip-path="url(#clip0_2706_1067)">
<path d="M15 0C14.1703 0 13.5 0.670312 13.5 1.5C13.5 2.32969 14.1703 3 15 3H18.8766L9.44062 12.4406C8.85469 13.0266 8.85469 13.9781 9.44062 14.5641C10.0266 15.15 10.9781 15.15 11.5641 14.5641L21 5.12344V9C21 9.82969 21.6703 10.5 22.5 10.5C23.3297 10.5 24 9.82969 24 9V1.5C24 0.670312 23.3297 0 22.5 0H15ZM3.75 1.5C1.67812 1.5 0 3.17812 0 5.25V20.25C0 22.3219 1.67812 24 3.75 24H18.75C20.8219 24 22.5 22.3219 22.5 20.25V15C22.5 14.1703 21.8297 13.5 21 13.5C20.1703 13.5 19.5 14.1703 19.5 15V20.25C19.5 20.6625 19.1625 21 18.75 21H3.75C3.3375 21 3 20.6625 3 20.25V5.25C3 4.8375 3.3375 4.5 3.75 4.5H9C9.82969 4.5 10.5 3.82969 10.5 3C10.5 2.17031 9.82969 1.5 9 1.5H3.75Z" fill="black"/>
</g>
<defs>
<clipPath id="clip0_2706_1067">
<rect width="24" height="24" fill="white"/>
</clipPath>
</defs>
</svg>
