<svg width="24" height="24" viewBox="0 0 24 24" fill="none" xmlns="http://www.w3.org/2000/svg">
<g clip-path="url(#clip0_2278_1849)">
<path d="M12 3C7.03125 3 3 7.03125 3 12C3 16.9688 7.03125 21 12 21C12.8297 21 13.5 21.6703 13.5 22.5C13.5 23.3297 12.8297 24 12 24C5.37188 24 0 18.6281 0 12C0 5.37188 5.37188 0 12 0C18.6281 0 24 5.37188 24 12V13.5C24 15.9844 21.9844 18 19.5 18C18.1266 18 16.8937 17.3813 16.0687 16.4109C15 17.3953 13.5703 18 12 18C8.68594 18 6 15.3141 6 12C6 8.68594 8.68594 6 12 6C13.3078 6 14.5172 6.41719 15.5016 7.12969C15.7688 6.89531 16.1156 6.75 16.5 6.75C17.3297 6.75 18 7.42031 18 8.25V12V13.5C18 14.3297 18.6703 15 19.5 15C20.3297 15 21 14.3297 21 13.5V12C21 7.03125 16.9688 3 12 3ZM15 12C15 10.3453 13.6547 9 12 9C10.3453 9 9 10.3453 9 12C9 13.6547 10.3453 15 12 15C13.6547 15 15 13.6547 15 12Z" fill="black"/>
</g>
<defs>
<clipPath id="clip0_2278_1849">
<rect width="24" height="24" fill="white"/>
</clipPath>
</defs>
</svg>
