<svg width="24" height="24" viewBox="0 0 24 24" fill="none" xmlns="http://www.w3.org/2000/svg">
<g clip-path="url(#clip0_2317_1393)">
<path d="M17.8781 2.09068C18.1547 1.4485 17.9484 0.698495 17.3812 0.285995C16.8141 -0.126505 16.0406 -0.0890046 15.5109 0.37037L3.51093 10.8704C3.04218 11.2829 2.87343 11.9438 3.09374 12.5251C3.31405 13.1063 3.87655 13.5001 4.49999 13.5001H9.72655L6.12186 21.9094C5.8453 22.5516 6.05155 23.3016 6.61874 23.7141C7.18593 24.1266 7.95937 24.0891 8.48905 23.6297L20.4891 13.1297C20.9578 12.7172 21.1266 12.0563 20.9062 11.4751C20.6859 10.8938 20.1281 10.5047 19.5 10.5047H14.2734L17.8781 2.09068Z" fill="black"/>
</g>
<defs>
<clipPath id="clip0_2317_1393">
<rect width="24" height="24" fill="white"/>
</clipPath>
</defs>
</svg>
