<svg width="24" height="24" viewBox="0 0 24 24" fill="none" xmlns="http://www.w3.org/2000/svg">
<path d="M6 0C3.51562 0 1.5 2.01562 1.5 4.5V19.5C1.5 21.9844 3.51562 24 6 24H19.5H21C21.8297 24 22.5 23.3297 22.5 22.5C22.5 21.6703 21.8297 21 21 21V18C21.8297 18 22.5 17.3297 22.5 16.5V1.5C22.5 0.670312 21.8297 0 21 0H19.5H6ZM6 18H18V21H6C5.17031 21 4.5 20.3297 4.5 19.5C4.5 18.6703 5.17031 18 6 18ZM7.5 6.75C7.5 6.3375 7.8375 6 8.25 6H17.25C17.6625 6 18 6.3375 18 6.75C18 7.1625 17.6625 7.5 17.25 7.5H8.25C7.8375 7.5 7.5 7.1625 7.5 6.75ZM8.25 9H17.25C17.6625 9 18 9.3375 18 9.75C18 10.1625 17.6625 10.5 17.25 10.5H8.25C7.8375 10.5 7.5 10.1625 7.5 9.75C7.5 9.3375 7.8375 9 8.25 9Z" fill="black"/>
</svg>
