<svg width="24" height="24" viewBox="0 0 24 24" fill="none" xmlns="http://www.w3.org/2000/svg">
<path d="M1.5 1.5H22.5C23.3297 1.5 24 2.17031 24 3V4.5C24 5.32969 23.3297 6 22.5 6H1.5C0.670312 6 0 5.32969 0 4.5V3C0 2.17031 0.670312 1.5 1.5 1.5ZM1.5 7.5H22.5V19.5C22.5 21.1547 21.1547 22.5 19.5 22.5H4.5C2.84531 22.5 1.5 21.1547 1.5 19.5V7.5ZM7.5 11.25C7.5 11.6625 7.8375 12 8.25 12H15.75C16.1625 12 16.5 11.6625 16.5 11.25C16.5 10.8375 16.1625 10.5 15.75 10.5H8.25C7.8375 10.5 7.5 10.8375 7.5 11.25Z" fill="black"/>
</svg>
