<svg width="24" height="24" viewBox="0 0 24 24" fill="none" xmlns="http://www.w3.org/2000/svg">
<path d="M1 1.3125C0.445833 1.3125 0 1.75833 0 2.3125C0 2.86667 0.445833 3.3125 1 3.3125H3.17083L5.68333 16.5C5.775 16.9708 6.1875 17.3125 6.66667 17.3125H20.3333C20.8875 17.3125 21.3333 16.8667 21.3333 16.3125C21.3333 15.7583 20.8875 15.3125 20.3333 15.3125H7.49583L7.11667 13.3125H20.325C20.9208 13.3125 21.4458 12.9167 21.6083 12.3417L23.8583 4.34167C24.0958 3.49167 23.4583 2.64583 22.575 2.64583H5.08333L4.98333 2.125C4.89167 1.65417 4.47917 1.3125 4 1.3125H1ZM7.33333 22.6458C8.4375 22.6458 9.33333 21.75 9.33333 20.6458C9.33333 19.5417 8.4375 18.6458 7.33333 18.6458C6.22917 18.6458 5.33333 19.5417 5.33333 20.6458C5.33333 21.75 6.22917 22.6458 7.33333 22.6458ZM21.3333 20.6458C21.3333 19.5417 20.4375 18.6458 19.3333 18.6458C18.2292 18.6458 17.3333 19.5417 17.3333 20.6458C17.3333 21.75 18.2292 22.6458 19.3333 22.6458C20.4375 22.6458 21.3333 21.75 21.3333 20.6458Z" fill="black"/>
</svg>
