<svg width="24" height="24" viewBox="0 0 24 24" fill="none" xmlns="http://www.w3.org/2000/svg">
<path d="M3 3C3 2.17031 2.32969 1.5 1.5 1.5C0.670312 1.5 0 2.17031 0 3V18.75C0 20.8219 1.67812 22.5 3.75 22.5H22.5C23.3297 22.5 24 21.8297 24 21C24 20.1703 23.3297 19.5 22.5 19.5H3.75C3.3375 19.5 3 19.1625 3 18.75V3ZM22.0594 7.05938C22.6453 6.47344 22.6453 5.52188 22.0594 4.93594C21.4734 4.35 20.5219 4.35 19.9359 4.93594L15 9.87656L12.3094 7.18594C11.7234 6.6 10.7719 6.6 10.1859 7.18594L4.93594 12.4359C4.35 13.0219 4.35 13.9734 4.93594 14.5594C5.52188 15.1453 6.47344 15.1453 7.05938 14.5594L11.25 10.3734L13.9406 13.0641C14.5266 13.65 15.4781 13.65 16.0641 13.0641L22.0641 7.06406L22.0594 7.05938Z" fill="black"/>
</svg>
