<svg width="24" height="24" viewBox="0 0 24 24" fill="none" xmlns="http://www.w3.org/2000/svg">
<path d="M12.6668 11.3125V2.00417C12.6668 1.62917 12.9585 1.3125 13.3335 1.3125C18.4877 1.3125 22.6668 5.49167 22.6668 10.6458C22.6668 11.0208 22.3502 11.3125 21.9752 11.3125H12.6668ZM1.3335 12.6458C1.3335 7.59167 5.08766 3.40833 9.9585 2.74167C10.3418 2.6875 10.6668 2.99583 10.6668 3.38333V13.3125L17.1877 19.8333C17.4668 20.1125 17.446 20.5708 17.1252 20.7958C15.4918 21.9625 13.4918 22.6458 11.3335 22.6458C5.81266 22.6458 1.3335 18.1708 1.3335 12.6458ZM23.2668 13.3125C23.6543 13.3125 23.9585 13.6375 23.9085 14.0208C23.5877 16.35 22.4668 18.4208 20.8293 19.95C20.5793 20.1833 20.1877 20.1667 19.946 19.9208L13.3335 13.3125H23.2668Z" fill="black"/>
</svg>
