<svg width="24" height="24" viewBox="0 0 24 24" fill="none" xmlns="http://www.w3.org/2000/svg">
<path d="M8.5 3.75C8.5 2.50781 9.50781 1.5 10.75 1.5H12.25C13.4922 1.5 14.5 2.50781 14.5 3.75V20.25C14.5 21.4922 13.4922 22.5 12.25 22.5H10.75C9.50781 22.5 8.5 21.4922 8.5 20.25V3.75ZM1 12.75C1 11.5078 2.00781 10.5 3.25 10.5H4.75C5.99219 10.5 7 11.5078 7 12.75V20.25C7 21.4922 5.99219 22.5 4.75 22.5H3.25C2.00781 22.5 1 21.4922 1 20.25V12.75ZM18.25 4.5H19.75C20.9922 4.5 22 5.50781 22 6.75V20.25C22 21.4922 20.9922 22.5 19.75 22.5H18.25C17.0078 22.5 16 21.4922 16 20.25V6.75C16 5.50781 17.0078 4.5 18.25 4.5Z" fill="black"/>
</svg>
