<svg width="24" height="24" viewBox="0 0 24 24" fill="none" xmlns="http://www.w3.org/2000/svg">
<path d="M3 3C3 2.17031 2.32969 1.5 1.5 1.5C0.670312 1.5 0 2.17031 0 3V18.75C0 20.8219 1.67812 22.5 3.75 22.5H22.5C23.3297 22.5 24 21.8297 24 21C24 20.1703 23.3297 19.5 22.5 19.5H3.75C3.3375 19.5 3 19.1625 3 18.75V3ZM7.5 16.5H21C21.8297 16.5 22.5 15.8297 22.5 15V11.8031C22.5 11.4469 22.3734 11.1 22.1391 10.8281L19.0547 7.22812C18.4875 6.5625 17.475 6.525 16.8563 7.14375L15.8719 8.12812C15.4031 8.59687 14.6344 8.55938 14.2125 8.05313L12.375 5.85C11.7844 5.14219 10.7016 5.12812 10.0922 5.82187L6.37031 10.0781C6.13125 10.35 6 10.7016 6 11.0672V15.0047C6 15.8344 6.67031 16.5047 7.5 16.5047V16.5Z" fill="black"/>
</svg>
