<svg width="24" height="24" viewBox="0 0 24 24" fill="none" xmlns="http://www.w3.org/2000/svg">
<g clip-path="url(#clip0_2278_1867)">
<path d="M12 24C18.6281 24 24 18.6281 24 12C24 5.37188 18.6281 0 12 0C5.37188 0 0 5.37188 0 12C0 18.6281 5.37188 24 12 24ZM8.20312 8.20312C8.64375 7.7625 9.35625 7.7625 9.79219 8.20312L11.9953 10.4062L14.1984 8.20312C14.6391 7.7625 15.3516 7.7625 15.7875 8.20312C16.2234 8.64375 16.2281 9.35625 15.7875 9.79219L13.5844 11.9953L15.7875 14.1984C16.2281 14.6391 16.2281 15.3516 15.7875 15.7875C15.3469 16.2234 14.6344 16.2281 14.1984 15.7875L11.9953 13.5844L9.79219 15.7875C9.35156 16.2281 8.63906 16.2281 8.20312 15.7875C7.76719 15.3469 7.7625 14.6344 8.20312 14.1984L10.4062 11.9953L8.20312 9.79219C7.7625 9.35156 7.7625 8.63906 8.20312 8.20312Z" fill="black"/>
</g>
<defs>
<clipPath id="clip0_2278_1867">
<rect width="24" height="24" fill="white"/>
</clipPath>
</defs>
</svg>
