<svg width="24" height="24" viewBox="0 0 24 24" fill="none" xmlns="http://www.w3.org/2000/svg">
<g clip-path="url(#clip0_2279_1888)">
<path d="M12 24C18.6281 24 24 18.6281 24 12C24 5.37188 18.6281 0 12 0C5.37188 0 0 5.37188 0 12C0 18.6281 5.37188 24 12 24ZM10.125 15.75H11.25V12.75H10.125C9.50156 12.75 9 12.2484 9 11.625C9 11.0016 9.50156 10.5 10.125 10.5H12.375C12.9984 10.5 13.5 11.0016 13.5 11.625V15.75H13.875C14.4984 15.75 15 16.2516 15 16.875C15 17.4984 14.4984 18 13.875 18H10.125C9.50156 18 9 17.4984 9 16.875C9 16.2516 9.50156 15.75 10.125 15.75ZM12 9C11.1703 9 10.5 8.32969 10.5 7.5C10.5 6.67031 11.1703 6 12 6C12.8297 6 13.5 6.67031 13.5 7.5C13.5 8.32969 12.8297 9 12 9Z" fill="black"/>
</g>
<defs>
<clipPath id="clip0_2279_1888">
<rect width="24" height="24" fill="white"/>
</clipPath>
</defs>
</svg>
