<svg width="24" height="24" viewBox="0 0 24 24" fill="none" xmlns="http://www.w3.org/2000/svg">
<g clip-path="url(#clip0_2446_886)">
<path d="M12 24C18.6281 24 24 18.6281 24 12C24 5.37188 18.6281 0 12 0C5.37188 0 0 5.37188 0 12C0 18.6281 5.37188 24 12 24ZM7.95938 7.74844C8.32969 6.70312 9.32344 6 10.4344 6H13.1672C14.8031 6 16.125 7.32656 16.125 8.95781C16.125 10.0172 15.5578 10.9969 14.6391 11.5266L13.125 12.3937C13.1156 13.0031 12.6141 13.5 12 13.5C11.3766 13.5 10.875 12.9984 10.875 12.375V11.7422C10.875 11.3391 11.0906 10.9688 11.4422 10.7672L13.5187 9.57656C13.7391 9.45 13.875 9.21562 13.875 8.9625C13.875 8.56875 13.5562 8.25469 13.1672 8.25469H10.4344C10.275 8.25469 10.1344 8.35312 10.0828 8.50312L10.0641 8.55938C9.85781 9.14531 9.21094 9.45 8.62969 9.24375C8.04844 9.0375 7.73906 8.39062 7.94531 7.80938L7.96406 7.75312L7.95938 7.74844ZM13.5 16.5C13.5 17.3297 12.8297 18 12 18C11.1703 18 10.5 17.3297 10.5 16.5C10.5 15.6703 11.1703 15 12 15C12.8297 15 13.5 15.6703 13.5 16.5Z" fill="black"/>
</g>
<defs>
<clipPath id="clip0_2446_886">
<rect width="24" height="24" fill="white"/>
</clipPath>
</defs>
</svg>
