<svg width="24" height="24" viewBox="0 0 24 24" fill="none" xmlns="http://www.w3.org/2000/svg">
<g clip-path="url(#clip0_2564_1000)">
<path d="M15.3141 18.9234C14.2781 19.2984 13.1625 19.5 12 19.5C10.8375 19.5 9.71719 19.2938 8.68594 18.9234C8.67188 18.9188 8.6625 18.9141 8.64844 18.9094C7.24219 18.3937 5.98594 17.5641 4.96406 16.5C3.28125 14.7469 2.25 12.3703 2.25 9.75C2.25 4.36406 6.61406 0 12 0C17.3859 0 21.75 4.36406 21.75 9.75C21.75 12.3703 20.7188 14.7469 19.0359 16.5C18.9891 16.5469 18.9422 16.5984 18.8953 16.6453C17.8922 17.6484 16.6734 18.4313 15.3187 18.9234H15.3141ZM12 4.30781C11.4797 4.30781 11.0578 4.72969 11.0578 5.25V5.53125C10.7953 5.5875 10.5469 5.66719 10.3125 5.77031C9.60938 6.08906 9.00469 6.67969 8.85469 7.5375C8.77031 8.01562 8.81719 8.475 9.01406 8.89688C9.21094 9.30937 9.51562 9.6 9.825 9.81094C10.3688 10.1813 11.0859 10.3969 11.6344 10.5609L11.7375 10.5938C12.3891 10.7906 12.8344 10.9406 13.1109 11.1422C13.2281 11.2266 13.2703 11.2922 13.2891 11.3297C13.3031 11.3672 13.3313 11.4516 13.2984 11.6437C13.2703 11.8078 13.1813 11.9438 12.9234 12.0563C12.6375 12.1781 12.1734 12.2391 11.5734 12.1453C11.2922 12.0984 10.7906 11.9297 10.3453 11.775C10.2422 11.7422 10.1438 11.7047 10.0453 11.6766C9.55313 11.5125 9.02344 11.7797 8.85938 12.2719C8.69531 12.7641 8.9625 13.2938 9.45469 13.4578C9.51094 13.4766 9.58125 13.5 9.66094 13.5281C10.0312 13.6547 10.6125 13.8516 11.0578 13.9547V14.25C11.0578 14.7703 11.4797 15.1922 12 15.1922C12.5203 15.1922 12.9422 14.7703 12.9422 14.25V13.9922C13.1953 13.9453 13.4344 13.875 13.6641 13.7766C14.4 13.4625 14.9953 12.8531 15.1453 11.9625C15.2297 11.475 15.1922 11.0109 15.0047 10.5844C14.8219 10.1625 14.5266 9.85313 14.2125 9.62344C13.6406 9.21094 12.8859 8.98125 12.3187 8.80781L12.2812 8.79844C11.6156 8.59688 11.1656 8.45625 10.8797 8.26406C10.7578 8.17969 10.7203 8.12344 10.7109 8.1C10.7016 8.08594 10.6781 8.025 10.7062 7.86563C10.7203 7.77656 10.7953 7.62187 11.0906 7.48594C11.3906 7.35 11.8594 7.275 12.4313 7.36406C12.6328 7.39688 13.2703 7.51875 13.4484 7.56562C13.95 7.69687 14.4609 7.40156 14.5969 6.9C14.7328 6.39844 14.4328 5.8875 13.9313 5.75156C13.725 5.69531 13.2563 5.60156 12.9469 5.54531V5.25C12.9469 4.72969 12.525 4.30781 12.0047 4.30781H12ZM2.25 16.5H3C3.91406 17.7141 5.0625 18.7359 6.38437 19.5H3V21H12H21V19.5H17.6156C18.9375 18.7359 20.0906 17.7141 21 16.5H21.75C22.9922 16.5 24 17.5078 24 18.75V21.75C24 22.9922 22.9922 24 21.75 24H2.25C1.00781 24 0 22.9922 0 21.75V18.75C0 17.5078 1.00781 16.5 2.25 16.5Z" fill="black"/>
</g>
<defs>
<clipPath id="clip0_2564_1000">
<rect width="24" height="24" fill="white"/>
</clipPath>
</defs>
</svg>
