<svg width="24" height="24" viewBox="0 0 24 24" fill="none" xmlns="http://www.w3.org/2000/svg">
<path d="M12 0C10.0406 0 8.37187 1.25156 7.75781 3H6C4.34531 3 3 4.34531 3 6V21C3 22.6547 4.34531 24 6 24H18C19.6547 24 21 22.6547 21 21V6C21 4.34531 19.6547 3 18 3H16.2422C15.6281 1.25156 13.9594 0 12 0ZM12 3C12.3978 3 12.7794 3.15804 13.0607 3.43934C13.342 3.72064 13.5 4.10218 13.5 4.5C13.5 4.89782 13.342 5.27936 13.0607 5.56066C12.7794 5.84196 12.3978 6 12 6C11.6022 6 11.2206 5.84196 10.9393 5.56066C10.658 5.27936 10.5 4.89782 10.5 4.5C10.5 4.10218 10.658 3.72064 10.9393 3.43934C11.2206 3.15804 11.6022 3 12 3ZM8.25 9H15.75C16.1625 9 16.5 9.3375 16.5 9.75C16.5 10.1625 16.1625 10.5 15.75 10.5H8.25C7.8375 10.5 7.5 10.1625 7.5 9.75C7.5 9.3375 7.8375 9 8.25 9Z" fill="black"/>
</svg>
