<svg width="24" height="24" viewBox="0 0 24 24" fill="none" xmlns="http://www.w3.org/2000/svg">
<path d="M12 0C10.0406 0 8.37187 1.25156 7.75781 3H6C4.34531 3 3 4.34531 3 6V21C3 22.6547 4.34531 24 6 24H18C19.6547 24 21 22.6547 21 21V6C21 4.34531 19.6547 3 18 3H16.2422C15.6281 1.25156 13.9594 0 12 0ZM12 3C12.3978 3 12.7794 3.15804 13.0607 3.43934C13.342 3.72064 13.5 4.10218 13.5 4.5C13.5 4.89782 13.342 5.27936 13.0607 5.56066C12.7794 5.84196 12.3978 6 12 6C11.6022 6 11.2206 5.84196 10.9393 5.56066C10.658 5.27936 10.5 4.89782 10.5 4.5C10.5 4.10218 10.658 3.72064 10.9393 3.43934C11.2206 3.15804 11.6022 3 12 3ZM6.375 12.75C6.375 12.4516 6.49353 12.1655 6.7045 11.9545C6.91548 11.7435 7.20163 11.625 7.5 11.625C7.79837 11.625 8.08452 11.7435 8.2955 11.9545C8.50647 12.1655 8.625 12.4516 8.625 12.75C8.625 13.0484 8.50647 13.3345 8.2955 13.5455C8.08452 13.7565 7.79837 13.875 7.5 13.875C7.20163 13.875 6.91548 13.7565 6.7045 13.5455C6.49353 13.3345 6.375 13.0484 6.375 12.75ZM11.25 12H17.25C17.6625 12 18 12.3375 18 12.75C18 13.1625 17.6625 13.5 17.25 13.5H11.25C10.8375 13.5 10.5 13.1625 10.5 12.75C10.5 12.3375 10.8375 12 11.25 12ZM6.375 17.25C6.375 16.9516 6.49353 16.6655 6.7045 16.4545C6.91548 16.2435 7.20163 16.125 7.5 16.125C7.79837 16.125 8.08452 16.2435 8.2955 16.4545C8.50647 16.6655 8.625 16.9516 8.625 17.25C8.625 17.5484 8.50647 17.8345 8.2955 18.0455C8.08452 18.2565 7.79837 18.375 7.5 18.375C7.20163 18.375 6.91548 18.2565 6.7045 18.0455C6.49353 17.8345 6.375 17.5484 6.375 17.25ZM10.5 17.25C10.5 16.8375 10.8375 16.5 11.25 16.5H17.25C17.6625 16.5 18 16.8375 18 17.25C18 17.6625 17.6625 18 17.25 18H11.25C10.8375 18 10.5 17.6625 10.5 17.25Z" fill="black"/>
</svg>
