<svg width="24" height="24" viewBox="0 0 24 24" fill="none" xmlns="http://www.w3.org/2000/svg">
<g clip-path="url(#clip0_3182_1244)">
<path d="M3.51562 3.51562L1.92188 1.92188C1.21406 1.21406 0 1.71563 0 2.71406V7.875C0 8.49844 0.501562 9 1.125 9H6.28594C7.28906 9 7.79063 7.78594 7.08281 7.07812L5.63906 5.63437C7.26562 4.00781 9.51562 3 12 3C16.9688 3 21 7.03125 21 12C21 16.9688 16.9688 21 12 21C10.0875 21 8.31563 20.4047 6.85781 19.3875C6.17813 18.9141 5.24531 19.0781 4.76719 19.7578C4.28906 20.4375 4.45781 21.3703 5.1375 21.8484C7.0875 23.2031 9.45469 24 12 24C18.6281 24 24 18.6281 24 12C24 5.37188 18.6281 0 12 0C8.68594 0 5.68594 1.34531 3.51562 3.51562ZM12 6C11.3766 6 10.875 6.50156 10.875 7.125V12C10.875 12.3 10.9922 12.5859 11.2031 12.7969L14.5781 16.1719C15.0188 16.6125 15.7312 16.6125 16.1672 16.1719C16.6031 15.7312 16.6078 15.0188 16.1672 14.5828L13.1203 11.5359V7.125C13.1203 6.50156 12.6187 6 11.9953 6H12Z" fill="black"/>
</g>
<defs>
<clipPath id="clip0_3182_1244">
<rect width="24" height="24" fill="white"/>
</clipPath>
</defs>
</svg>
