<svg width="24" height="24" viewBox="0 0 24 24" fill="none" xmlns="http://www.w3.org/2000/svg">
<g clip-path="url(#clip0_2705_1070)">
<path d="M12 24C5.37188 24 0 18.6281 0 12C0 5.37188 5.37188 0 12 0C18.6281 0 24 5.37188 24 12C24 18.6281 18.6281 24 12 24ZM10.875 5.625V12C10.875 12.375 11.0625 12.7266 11.3766 12.9375L15.8766 15.9375C16.3922 16.2844 17.0906 16.1437 17.4375 15.6234C17.7844 15.1031 17.6437 14.4094 17.1234 14.0625L13.125 11.4V5.625C13.125 5.00156 12.6234 4.5 12 4.5C11.3766 4.5 10.875 5.00156 10.875 5.625Z" fill="black"/>
</g>
<defs>
<clipPath id="clip0_2705_1070">
<rect width="24" height="24" fill="white"/>
</clipPath>
</defs>
</svg>
