<svg width="24" height="24" viewBox="0 0 24 24" fill="none" xmlns="http://www.w3.org/2000/svg">
<g clip-path="url(#clip0_2703_1069)">
<path d="M23.9999 11.25C23.9999 16.6359 18.628 21 11.9999 21C10.2609 21 8.61086 20.7 7.12024 20.1609C6.56242 20.5688 5.65305 21.1266 4.57493 21.5953C3.44993 22.0828 2.09524 22.5 0.749925 22.5C0.445238 22.5 0.173363 22.3172 0.0561752 22.0359C-0.0610123 21.7547 0.00461273 21.4359 0.21555 21.2203L0.229613 21.2062C0.243675 21.1922 0.262425 21.1734 0.29055 21.1406C0.342113 21.0844 0.4218 20.9953 0.520238 20.8734C0.712425 20.6391 0.970238 20.2922 1.23274 19.8609C1.70149 19.0828 2.1468 18.0609 2.23586 16.9125C0.829613 15.3187 -7.47609e-05 13.3641 -7.47609e-05 11.25C-7.47609e-05 5.86406 5.3718 1.5 11.9999 1.5C18.628 1.5 23.9999 5.86406 23.9999 11.25Z" fill="black"/>
</g>
<defs>
<clipPath id="clip0_2703_1069">
<rect width="24" height="24" fill="white"/>
</clipPath>
</defs>
</svg>
