<svg width="24" height="24" viewBox="0 0 24 24" fill="none" xmlns="http://www.w3.org/2000/svg">
<path d="M2.66667 2C1.19583 2 0 3.19583 0 4.66667V6H24V4.66667C24 3.19583 22.8042 2 21.3333 2H2.66667ZM24 10H0V18C0 19.4708 1.19583 20.6667 2.66667 20.6667H21.3333C22.8042 20.6667 24 19.4708 24 18V10ZM4.66667 15.3333H7.33333C7.7 15.3333 8 15.6333 8 16C8 16.3667 7.7 16.6667 7.33333 16.6667H4.66667C4.3 16.6667 4 16.3667 4 16C4 15.6333 4.3 15.3333 4.66667 15.3333ZM9.33333 16C9.33333 15.6333 9.63333 15.3333 10 15.3333H15.3333C15.7 15.3333 16 15.6333 16 16C16 16.3667 15.7 16.6667 15.3333 16.6667H10C9.63333 16.6667 9.33333 16.3667 9.33333 16Z" fill="black"/>
</svg>
