<svg width="24" height="24" viewBox="0 0 24 24" fill="none" xmlns="http://www.w3.org/2000/svg">
<path d="M12.875 5.74996C13.35 5.45829 13.6667 4.92913 13.6667 4.33329C13.6667 3.41246 12.9208 2.66663 12 2.66663C11.0792 2.66663 10.3333 3.41246 10.3333 4.33329C10.3333 4.93329 10.65 5.45829 11.125 5.74996L8.7375 10.525C8.35833 11.2833 7.375 11.5 6.7125 10.9708L3 7.99996C3.20833 7.72079 3.33333 7.37496 3.33333 6.99996C3.33333 6.07913 2.5875 5.33329 1.66667 5.33329C0.745833 5.33329 0 6.07913 0 6.99996C0 7.92079 0.745833 8.66663 1.66667 8.66663C1.675 8.66663 1.6875 8.66663 1.69583 8.66663L3.6 19.1416C3.82917 20.4083 4.93333 21.3333 6.225 21.3333H17.775C19.0625 21.3333 20.1667 20.4125 20.4 19.1416L22.3042 8.66663C22.3125 8.66663 22.325 8.66663 22.3333 8.66663C23.2542 8.66663 24 7.92079 24 6.99996C24 6.07913 23.2542 5.33329 22.3333 5.33329C21.4125 5.33329 20.6667 6.07913 20.6667 6.99996C20.6667 7.37496 20.7917 7.72079 21 7.99996L17.2875 10.9708C16.625 11.5 15.6417 11.2833 15.2625 10.525L12.875 5.74996Z" fill="black"/>
</svg>
