<svg width="24" height="24" viewBox="0 0 24 24" fill="none" xmlns="http://www.w3.org/2000/svg">
<path d="M24 6.66667C24 5.19583 22.8042 4 21.3333 4H8.55417C7.84583 4 7.16667 4.27917 6.66667 4.77917L0.391667 11.0583C0.141667 11.3083 0 11.6458 0 12C0 12.3542 0.141667 12.6917 0.391667 12.9417L6.66667 19.2208C7.16667 19.7208 7.84583 20 8.55417 20H21.3333C22.8042 20 24 18.8042 24 17.3333V6.66667ZM11.2917 8.625C11.6833 8.23333 12.3167 8.23333 12.7042 8.625L14.6625 10.5833L16.6208 8.625C17.0125 8.23333 17.6458 8.23333 18.0333 8.625C18.4208 9.01667 18.425 9.65 18.0333 10.0375L16.075 11.9958L18.0333 13.9542C18.425 14.3458 18.425 14.9792 18.0333 15.3667C17.6417 15.7542 17.0083 15.7583 16.6208 15.3667L14.6625 13.4083L12.7042 15.3667C12.3125 15.7583 11.6792 15.7583 11.2917 15.3667C10.9042 14.975 10.9 14.3417 11.2917 13.9542L13.25 11.9958L11.2917 10.0375C10.9 9.64583 10.9 9.0125 11.2917 8.625Z" fill="black"/>
</svg>
