<svg width="24" height="24" viewBox="0 0 24 24" fill="none" xmlns="http://www.w3.org/2000/svg">
<path d="M0 4.64587C0 3.54171 0.895833 2.64587 2 2.64587H6C7.10417 2.64587 8 3.54171 8 4.64587V5.31254H16V4.64587C16 3.54171 16.8958 2.64587 18 2.64587H22C23.1042 2.64587 24 3.54171 24 4.64587V8.64587C24 9.75004 23.1042 10.6459 22 10.6459H18C16.8958 10.6459 16 9.75004 16 8.64587V7.97921H8V8.64587C8 8.71671 7.99583 8.78754 7.9875 8.85421L11.3333 13.3125H15.3333C16.4375 13.3125 17.3333 14.2084 17.3333 15.3125V19.3125C17.3333 20.4167 16.4375 21.3125 15.3333 21.3125H11.3333C10.2292 21.3125 9.33333 20.4167 9.33333 19.3125V15.3125C9.33333 15.2417 9.3375 15.1709 9.34583 15.1042L6 10.6459H2C0.895833 10.6459 0 9.75004 0 8.64587V4.64587Z" fill="black"/>
</svg>
