<svg width="24" height="24" viewBox="0 0 24 24" fill="none" xmlns="http://www.w3.org/2000/svg">
<path d="M11.4998 0C12.3295 0 12.9998 0.670312 12.9998 1.5V3.17344C13.0748 3.18281 13.1451 3.19219 13.2201 3.20625C13.717 3.28125 15.1936 3.52031 15.8029 3.675C16.6045 3.87656 17.092 4.69219 16.8904 5.49844C16.6889 6.30469 15.8732 6.7875 15.067 6.58594C14.6311 6.47344 13.3045 6.25781 12.7748 6.17813C11.2701 5.95312 9.98106 6.06562 9.09512 6.40781C8.23731 6.73594 7.88106 7.2 7.78731 7.72031C7.69825 8.22188 7.76387 8.50781 7.84825 8.68594C7.93731 8.87344 8.11075 9.08437 8.45294 9.31406C9.21231 9.82031 10.3795 10.1531 11.8889 10.5656L12.0201 10.6031C13.3514 10.9641 14.9826 11.4094 16.192 12.2109C16.8529 12.6516 17.4717 13.2469 17.8561 14.0719C18.2451 14.9063 18.3295 15.8437 18.1514 16.8422C17.8279 18.6234 16.5998 19.8141 15.0764 20.4375C14.4342 20.7 13.7357 20.8687 12.9951 20.9531V22.5C12.9951 23.3297 12.3248 24 11.4951 24C10.6654 24 9.99512 23.3297 9.99512 22.5V20.8641C9.97637 20.8594 9.95294 20.8594 9.93419 20.8547H9.92481C8.78106 20.6766 6.90137 20.1844 5.63575 19.6219C4.87637 19.2844 4.53887 18.3984 4.87637 17.6437C5.21387 16.8891 6.09981 16.5469 6.8545 16.8844C7.83419 17.3203 9.44669 17.7469 10.3795 17.8969C11.8748 18.1172 13.1076 17.9906 13.942 17.6484C14.7342 17.325 15.0951 16.8563 15.1982 16.2938C15.2873 15.7922 15.2217 15.5063 15.1373 15.3281C15.0482 15.1406 14.8748 14.9297 14.5326 14.7C13.7732 14.1938 12.6061 13.8609 11.0967 13.4484L10.9654 13.4109C9.63419 13.05 8.00294 12.6047 6.79356 11.8031C6.13262 11.3625 5.51387 10.7672 5.1295 9.94219C4.74044 9.10781 4.65606 8.17031 4.83419 7.17188C5.17169 5.34844 6.48419 4.18594 8.03106 3.59531C8.64044 3.36094 9.30606 3.21094 9.99981 3.12656V1.5C9.99981 0.670312 10.6701 0 11.4998 0Z" fill="black"/>
</svg>
