<svg width="24" height="24" viewBox="0 0 24 24" fill="none" xmlns="http://www.w3.org/2000/svg">
<path d="M12.1124 3.72498L2.3916 13.4458C1.34993 14.4875 1.34993 16.175 2.3916 17.2166L5.72493 20.55C6.22493 21.05 6.9041 21.3291 7.61243 21.3291H11.9999H12.3916H21.3333C22.0708 21.3291 22.6666 20.7333 22.6666 19.9958C22.6666 19.2583 22.0708 18.6625 21.3333 18.6625H16.1624L21.6083 13.2208C22.6499 12.1791 22.6499 10.4916 21.6083 9.44998L15.8874 3.72498C14.8458 2.68331 13.1583 2.68331 12.1166 3.72498H12.1124ZM12.3916 18.6666H11.9999H7.60827L4.27493 15.3333L9.47077 10.1375L15.1958 15.8625L12.3916 18.6666Z" fill="black"/>
</svg>
