<svg width="24" height="24" viewBox="0 0 24 24" fill="none" xmlns="http://www.w3.org/2000/svg">
<path d="M6.25469 11.25C6.25 11.3766 6.25 11.4984 6.25 11.625V12.375C6.25 12.5016 6.25 12.6234 6.25469 12.75H5.5C4.67031 12.75 4 13.4203 4 14.25C4 15.0797 4.67031 15.75 5.5 15.75H6.82656C8.21406 19.6828 11.9688 22.5 16.375 22.5H17.5C18.3297 22.5 19 21.8297 19 21C19 20.1703 18.3297 19.5 17.5 19.5H16.375C13.6609 19.5 11.3031 17.9813 10.0984 15.75H16C16.8297 15.75 17.5 15.0797 17.5 14.25C17.5 13.4203 16.8297 12.75 16 12.75H9.25937C9.25469 12.6281 9.25 12.5016 9.25 12.375V11.625C9.25 11.4984 9.25469 11.3719 9.25937 11.25H16C16.8297 11.25 17.5 10.5797 17.5 9.75C17.5 8.92031 16.8297 8.25 16 8.25H10.0984C11.3031 6.01875 13.6609 4.5 16.375 4.5H17.5C18.3297 4.5 19 3.82969 19 3C19 2.17031 18.3297 1.5 17.5 1.5H16.375C11.9688 1.5 8.21406 4.31719 6.82656 8.25H5.5C4.67031 8.25 4 8.92031 4 9.75C4 10.5797 4.67031 11.25 5.5 11.25H6.25469Z" fill="black"/>
</svg>
