<svg width="24" height="24" viewBox="0 0 24 24" fill="none" xmlns="http://www.w3.org/2000/svg">
<g clip-path="url(#clip0_2564_1002)">
<path d="M1.45521 2.59124C1.06521 2.28374 0.498961 2.35499 0.191461 2.74499C-0.116039 3.13499 -0.0447892 3.70124 0.345211 4.00874L22.5452 21.4087C22.9352 21.7162 23.5015 21.645 23.809 21.255C24.1165 20.865 24.0452 20.2987 23.6552 19.9912L19.7102 16.9012C21.1952 15.3787 22.2002 13.6725 22.7065 12.4612C22.8302 12.165 22.8302 11.835 22.7065 11.5387C22.1477 10.2 20.974 8.24999 19.219 6.62249C17.4565 4.97999 15.0302 3.59999 12.0002 3.59999C9.44271 3.59999 7.31271 4.58624 5.65146 5.87999L1.45521 2.59124ZM8.36646 8.00624C9.32271 7.13249 10.6015 6.59999 12.0002 6.59999C14.9815 6.59999 17.4002 9.01874 17.4002 12C17.4002 12.9337 17.164 13.8112 16.7477 14.5762L15.3002 13.4437C15.4952 13.0012 15.6002 12.5137 15.6002 12C15.6002 10.0125 13.9877 8.39999 12.0002 8.39999C11.8952 8.39999 11.7902 8.40374 11.6852 8.41499C11.884 8.76374 12.0002 9.16874 12.0002 9.59999C12.0002 9.98249 11.9102 10.3425 11.7527 10.6612L8.36646 8.00624ZM16.7327 19.1812L13.9877 17.0212C13.3727 17.265 12.7015 17.4 12.0002 17.4C9.01896 17.4 6.60021 14.9812 6.60021 12C6.60021 11.7412 6.61896 11.49 6.65271 11.2425L3.11646 8.45624C2.26146 9.56999 1.65021 10.68 1.29396 11.5387C1.17021 11.835 1.17021 12.165 1.29396 12.4612C1.85271 13.8 3.02646 15.75 4.78146 17.3775C6.54396 19.02 8.97021 20.4 12.0002 20.4C13.7927 20.4 15.3715 19.9162 16.7327 19.1812Z" fill="black"/>
</g>
<defs>
<clipPath id="clip0_2564_1002">
<rect width="24" height="24" fill="white"/>
</clipPath>
</defs>
</svg>
