<svg width="24" height="24" viewBox="0 0 24 24" fill="none" xmlns="http://www.w3.org/2000/svg">
<path d="M12.0002 3.59998C8.97023 3.59998 6.54398 4.97998 4.77773 6.62248C3.02273 8.24998 1.84898 10.2 1.29398 11.5387C1.17023 11.835 1.17023 12.165 1.29398 12.4612C1.84898 13.8 3.02273 15.75 4.77773 17.3775C6.54398 19.02 8.97023 20.4 12.0002 20.4C15.0302 20.4 17.4565 19.02 19.2227 17.3775C20.9777 15.7462 22.1515 13.8 22.7102 12.4612C22.834 12.165 22.834 11.835 22.7102 11.5387C22.1515 10.2 20.9777 8.24998 19.2227 6.62248C17.4565 4.97998 15.0302 3.59998 12.0002 3.59998ZM17.4002 12C17.4002 14.9812 14.9815 17.4 12.0002 17.4C9.01898 17.4 6.60023 14.9812 6.60023 12C6.60023 9.01873 9.01898 6.59998 12.0002 6.59998C14.9815 6.59998 17.4002 9.01873 17.4002 12ZM12.0002 9.59998C12.0002 10.9237 10.924 12 9.60023 12C9.16898 12 8.76398 11.8875 8.41523 11.685C8.40773 11.79 8.40023 11.8912 8.40023 12C8.40023 13.9875 10.0127 15.6 12.0002 15.6C13.9877 15.6 15.6002 13.9875 15.6002 12C15.6002 10.0125 13.9877 8.39998 12.0002 8.39998C11.8952 8.39998 11.7902 8.40373 11.6852 8.41498C11.884 8.76373 12.0002 9.16873 12.0002 9.59998Z" fill="black"/>
</svg>
