<svg width="24" height="24" viewBox="0 0 24 24" fill="none" xmlns="http://www.w3.org/2000/svg">
<g clip-path="url(#clip0_2446_885)">
<path d="M6 3C6 1.34531 7.34531 0 9 0H16.5V6C16.5 6.82969 17.1703 7.5 18 7.5H24V21C24 22.6547 22.6547 24 21 24H9C7.34531 24 6 22.6547 6 21V15.75H14.1609L12.3328 17.5781C11.8922 18.0187 11.8922 18.7312 12.3328 19.1672C12.7734 19.6031 13.4859 19.6078 13.9219 19.1672L17.6719 15.4172C18.1125 14.9766 18.1125 14.2641 17.6719 13.8281L13.9219 10.0781C13.4812 9.6375 12.7688 9.6375 12.3328 10.0781C11.8969 10.5188 11.8922 11.2312 12.3328 11.6672L14.1609 13.4953H6V3ZM6 13.5V15.75H1.125C0.501562 15.75 0 15.2484 0 14.625C0 14.0016 0.501562 13.5 1.125 13.5H6ZM24 6H18V0L24 6Z" fill="black"/>
</g>
<defs>
<clipPath id="clip0_2446_885">
<rect width="24" height="24" fill="white"/>
</clipPath>
</defs>
</svg>
