<svg width="24" height="24" viewBox="0 0 24 24" fill="none" xmlns="http://www.w3.org/2000/svg">
<g clip-path="url(#clip0_3084_1248)">
<path d="M2.25 12C2.25 6.61406 6.61406 2.25 12 2.25C14.9578 2.25 17.6062 3.56719 19.3969 5.64844C19.8 6.12187 20.5125 6.17344 20.9813 5.77031C21.45 5.36719 21.5063 4.65469 21.1031 4.18594C18.9047 1.62188 15.6422 0 12 0C5.37188 0 0 5.37188 0 12V13.875C0 14.4984 0.501562 15 1.125 15C1.74844 15 2.25 14.4984 2.25 13.875V12ZM23.7422 9.52031C23.6156 8.91094 23.0156 8.52188 22.4109 8.65313C21.8062 8.78438 21.4125 9.37969 21.5438 9.98438C21.6797 10.6359 21.7547 11.3109 21.7547 12.0047V13.8797C21.7547 14.5031 22.2563 15.0047 22.8797 15.0047C23.5031 15.0047 24.0047 14.5031 24.0047 13.8797V12C24.0047 11.1516 23.9156 10.3219 23.7469 9.52031H23.7422ZM12 3.75C11.1094 3.75 10.2469 3.89062 9.44531 4.15312C8.73281 4.3875 8.56875 5.26406 9.05625 5.83594C9.38906 6.225 9.9375 6.34219 10.4344 6.20625C10.9313 6.07031 11.4563 6 12 6C15.3141 6 18 8.68594 18 12V13.1672C18 14.3484 17.9297 15.525 17.7938 16.6969C17.7141 17.3813 18.2344 18 18.9281 18C19.4812 18 19.9547 17.5969 20.0203 17.0484C20.175 15.7641 20.2547 14.4703 20.2547 13.1719V12C20.2547 7.44375 16.5609 3.75 12.0047 3.75H12ZM7.06406 6.97031C6.6375 6.47344 5.87813 6.43594 5.475 6.95156C4.39219 8.34375 3.75 10.0969 3.75 12V13.1672C3.75 14.3016 3.62812 15.4359 3.38437 16.5375C3.225 17.2687 3.75469 18 4.50469 18C4.99687 18 5.4375 17.6719 5.54531 17.1891C5.84531 15.8719 6 14.5266 6 13.1672V12C6 10.725 6.39844 9.54375 7.07344 8.57344C7.41094 8.08594 7.44844 7.42031 7.06406 6.97031ZM12 7.5C9.51562 7.5 7.5 9.51562 7.5 12V13.1672C7.5 14.85 7.28437 16.5187 6.85312 18.1406C6.675 18.8109 7.16719 19.5 7.86094 19.5C8.30625 19.5 8.7 19.2094 8.81719 18.7781C9.30938 16.95 9.5625 15.0656 9.5625 13.1672V12C9.5625 10.6547 10.6547 9.5625 12 9.5625C13.3453 9.5625 14.4375 10.6547 14.4375 12V13.1672C14.4375 14.8687 14.2734 16.5609 13.95 18.225C13.8234 18.8766 14.3109 19.5 14.9719 19.5C15.45 19.5 15.8625 19.1719 15.9562 18.7031C16.3172 16.8844 16.5 15.0328 16.5 13.1672V12C16.5 9.51562 14.4844 7.5 12 7.5ZM13.125 12C13.125 11.3766 12.6234 10.875 12 10.875C11.3766 10.875 10.875 11.3766 10.875 12V13.1672C10.875 15.975 10.3594 18.7594 9.35156 21.3797L9.075 22.0969C8.85 22.6781 9.14062 23.3297 9.72187 23.55C10.3031 23.7703 10.9547 23.4844 11.175 22.9031L11.4516 22.1859C12.5578 19.3078 13.125 16.2516 13.125 13.1672V12Z" fill="black"/>
</g>
<defs>
<clipPath id="clip0_3084_1248">
<rect width="24" height="24" fill="white"/>
</clipPath>
</defs>
</svg>
