<svg width="24" height="24" viewBox="0 0 24 24" fill="none" xmlns="http://www.w3.org/2000/svg">
<path d="M24 19.5C24 21.1547 22.6547 22.5 21 22.5H3C1.34531 22.5 0 21.1547 0 19.5V4.5C0 2.84531 1.34531 1.5 3 1.5H8.50781C9.30469 1.5 10.0688 1.81406 10.6313 2.37656L11.8734 3.61875C12.4359 4.18125 13.2 4.49531 13.9969 4.49531H21C22.6547 4.49531 24 5.84062 24 7.49531V19.5ZM10.875 17.625C10.875 18.2484 11.3766 18.75 12 18.75C12.6234 18.75 13.125 18.2484 13.125 17.625V14.625H16.125C16.7484 14.625 17.25 14.1234 17.25 13.5C17.25 12.8766 16.7484 12.375 16.125 12.375H13.125V9.375C13.125 8.75156 12.6234 8.25 12 8.25C11.3766 8.25 10.875 8.75156 10.875 9.375V12.375H7.875C7.25156 12.375 6.75 12.8766 6.75 13.5C6.75 14.1234 7.25156 14.625 7.875 14.625H10.875V17.625Z" fill="black"/>
</svg>
