<svg width="24" height="24" viewBox="0 0 24 24" fill="none" xmlns="http://www.w3.org/2000/svg">
<g clip-path="url(#clip0_3278_1244)">
<path d="M14.9345 0.440674C14.3485 -0.145264 13.397 -0.145264 12.811 0.440674L7.18604 6.06567C6.6001 6.65161 6.6001 7.60317 7.18604 8.18911L7.93604 8.93911C8.52197 9.52505 9.47354 9.52505 10.0595 8.93911L10.247 8.75161L15.2532 13.7532L15.0657 13.9407C14.4798 14.5266 14.4798 15.4782 15.0657 16.0641L15.8157 16.8141C16.4017 17.4 17.3532 17.4 17.9392 16.8141L23.5642 11.1891C24.1501 10.6032 24.1501 9.65161 23.5642 9.06567L22.8142 8.31567C22.2282 7.72974 21.2767 7.72974 20.6907 8.31567L20.5032 8.50317L15.497 3.49692L15.6845 3.30942C16.2704 2.72349 16.2704 1.77192 15.6845 1.18599L14.9345 0.435986V0.440674ZM7.80947 13.9407C7.22354 13.3547 6.27197 13.3547 5.68604 13.9407L0.436035 19.1907C-0.149902 19.7766 -0.149902 20.7282 0.436035 21.3141L2.68604 23.5641C3.27197 24.15 4.22354 24.15 4.80947 23.5641L10.0595 18.3141C10.6454 17.7282 10.6454 16.7766 10.0595 16.1907L9.99385 16.125L12.7501 13.3735L10.6267 11.25L7.8751 14.0016L7.80947 13.936V13.9407Z" fill="black"/>
</g>
<defs>
<clipPath id="clip0_3278_1244">
<rect width="24" height="24" fill="white"/>
</clipPath>
</defs>
</svg>
