<svg width="24" height="24" viewBox="0 0 24 24" fill="none" xmlns="http://www.w3.org/2000/svg">
<g clip-path="url(#clip0_2564_1004)">
<path d="M5.47009 1.58437C5.68102 1.29844 6.01852 1.125 6.37477 1.125H17.6248C17.981 1.125 18.3185 1.29375 18.5295 1.58437L23.7795 8.70938C24.0982 9.14062 24.0654 9.73594 23.7091 10.1344L12.8341 22.1344C12.6185 22.3688 12.3185 22.5047 11.9998 22.5047C11.681 22.5047 11.381 22.3688 11.1654 22.1344L0.290398 10.1344C-0.0705391 9.73594 -0.0986641 9.14062 0.220086 8.70938L5.47009 1.58437ZM7.27477 3.45C7.12009 3.56719 7.0779 3.77812 7.17634 3.94219L9.86696 8.42344L2.96696 9C2.77477 9.01406 2.62477 9.17813 2.62477 9.375C2.62477 9.57187 2.77477 9.73125 2.96696 9.75L11.967 10.5C11.9857 10.5 12.0091 10.5 12.0279 10.5L21.0279 9.75C21.2201 9.73594 21.3701 9.57187 21.3701 9.375C21.3701 9.17813 21.2201 9.01875 21.0279 9L14.1326 8.42813L16.8232 3.94687C16.9216 3.78281 16.8795 3.56719 16.7248 3.45469C16.5701 3.34219 16.3545 3.36094 16.2232 3.50156L11.9998 8.07187L7.77634 3.49687C7.64509 3.35625 7.42946 3.3375 7.27477 3.45Z" fill="black"/>
</g>
<defs>
<clipPath id="clip0_2564_1004">
<rect width="24" height="24" fill="white"/>
</clipPath>
</defs>
</svg>
