<svg width="24" height="24" viewBox="0 0 24 24" fill="none" xmlns="http://www.w3.org/2000/svg">
<path d="M13 2.3125V2.75C13.2667 2.8 13.525 2.8625 13.7583 2.925C14.2917 3.06667 14.6083 3.61667 14.4667 4.15C14.325 4.68333 13.775 5 13.2417 4.85833C12.7875 4.7375 12.3625 4.65417 11.9833 4.65C11.6792 4.64583 11.3708 4.72083 11.175 4.83333C11.0875 4.8875 11.0458 4.93333 11.0292 4.95833C11.0167 4.97917 11 5.00833 11 5.075C11 5.0875 11 5.09583 11 5.1C11.0083 5.10833 11.0375 5.15 11.1375 5.20833C11.3792 5.35417 11.7375 5.46667 12.2792 5.62917L12.3167 5.64167C12.7792 5.77917 13.3958 5.96667 13.8958 6.27917C14.4667 6.6375 14.9833 7.23333 14.9958 8.15C15.0083 9.0875 14.5208 9.77083 13.8833 10.1708C13.6042 10.3417 13.3042 10.4625 12.9958 10.5375V10.9792C12.9958 11.5333 12.55 11.9792 11.9958 11.9792C11.4417 11.9792 10.9958 11.5333 10.9958 10.9792V10.5042C10.6 10.4083 10.2375 10.2833 9.92917 10.1792C9.84167 10.15 9.75833 10.1208 9.67917 10.0958C9.15417 9.92083 8.87083 9.35417 9.04583 8.82917C9.22083 8.30417 9.7875 8.02083 10.3125 8.19583C10.4208 8.23333 10.5208 8.26667 10.6167 8.3C11.1833 8.49167 11.5917 8.62917 12.0292 8.64583C12.3625 8.65833 12.6583 8.57917 12.8292 8.475C12.9083 8.425 12.9458 8.38333 12.9625 8.35417C12.9792 8.32917 13 8.27917 12.9958 8.18333V8.175C12.9958 8.13333 12.9958 8.0875 12.8292 7.98333C12.5917 7.83333 12.2333 7.71667 11.7 7.55417L11.6208 7.52917C11.1708 7.39583 10.5792 7.21667 10.1042 6.92917C9.54167 6.59167 9 6.0125 8.99583 5.09167C8.99167 4.1375 9.53333 3.48333 10.15 3.11667C10.4167 2.95833 10.7042 2.85 10.9917 2.775V2.3125C10.9917 1.75833 11.4375 1.3125 11.9917 1.3125C12.5458 1.3125 12.9917 1.75833 12.9917 2.3125H13ZM23.675 15.325C24.2208 16.0667 24.0625 17.1083 23.3208 17.6542L18.0458 21.5417C17.0708 22.2583 15.8958 22.6458 14.6833 22.6458H8H1.33333C0.595833 22.6458 0 22.05 0 21.3125V18.6458C0 17.9083 0.595833 17.3125 1.33333 17.3125H2.86667L4.7375 15.8125C5.68333 15.0542 6.85833 14.6458 8.07083 14.6458H11.3333H12H14.6667C15.4042 14.6458 16 15.2417 16 15.9792C16 16.7167 15.4042 17.3125 14.6667 17.3125H12H11.3333C10.9667 17.3125 10.6667 17.6125 10.6667 17.9792C10.6667 18.3458 10.9667 18.6458 11.3333 18.6458H16.3583L21.3458 14.9708C22.0875 14.425 23.1292 14.5833 23.675 15.325ZM8.06667 17.3125H8.02917C8.04167 17.3125 8.05417 17.3125 8.06667 17.3125Z" fill="black"/>
</svg>
