<svg width="24" height="24" viewBox="0 0 24 24" fill="none" xmlns="http://www.w3.org/2000/svg">
<path d="M6.16667 4.50417C6.16667 2.74167 7.59583 1.3125 9.35833 1.3125C10.2042 1.3125 11.0167 1.65 11.6125 2.24583L12 2.63333L12.3875 2.24583C12.9833 1.65 13.7958 1.3125 14.6417 1.3125C16.4042 1.3125 17.8333 2.74167 17.8333 4.50417C17.8333 5.35 17.4958 6.1625 16.9 6.75833L12.5875 11.0667C12.2625 11.3917 11.7333 11.3917 11.4083 11.0667L7.1 6.75833C6.50417 6.1625 6.16667 5.35 6.16667 4.50417ZM23.675 15.325C24.2208 16.0667 24.0625 17.1083 23.3208 17.6542L18.0458 21.5417C17.0708 22.2583 15.8958 22.6458 14.6833 22.6458H8H1.33333C0.595833 22.6458 0 22.05 0 21.3125V18.6458C0 17.9083 0.595833 17.3125 1.33333 17.3125H2.86667L4.7375 15.8125C5.68333 15.0542 6.85833 14.6458 8.07083 14.6458H11.3333H12H14.6667C15.4042 14.6458 16 15.2417 16 15.9792C16 16.7167 15.4042 17.3125 14.6667 17.3125H12H11.3333C10.9667 17.3125 10.6667 17.6125 10.6667 17.9792C10.6667 18.3458 10.9667 18.6458 11.3333 18.6458H16.3583L21.3458 14.9708C22.0875 14.425 23.1292 14.5833 23.675 15.325ZM8.06667 17.3125H8.02917C8.04167 17.3125 8.05417 17.3125 8.06667 17.3125Z" fill="black"/>
</svg>
