<svg width="24" height="24" viewBox="0 0 24 24" fill="none" xmlns="http://www.w3.org/2000/svg">
<g clip-path="url(#clip0_2317_1406)">
<path d="M13.4999 1.5C13.4999 0.670312 12.8296 0 11.9999 0C11.1702 0 10.4999 0.670312 10.4999 1.5V11.25C10.4999 11.6625 10.1624 12 9.74993 12C9.33743 12 8.99993 11.6625 8.99993 11.25V3C8.99993 2.17031 8.32962 1.5 7.49993 1.5C6.67025 1.5 5.99993 2.17031 5.99993 3V15.75C5.99993 15.8203 5.99994 15.8953 6.00462 15.9656L3.16868 13.2656C2.41869 12.5531 1.23275 12.5812 0.51556 13.3312C-0.201627 14.0812 -0.168815 15.2672 0.581185 15.9844L5.84994 21C7.87025 22.9266 10.5562 24 13.3499 24H14.2499C18.8062 24 22.4999 20.3062 22.4999 15.75V6C22.4999 5.17031 21.8296 4.5 20.9999 4.5C20.1702 4.5 19.4999 5.17031 19.4999 6V11.25C19.4999 11.6625 19.1624 12 18.7499 12C18.3374 12 17.9999 11.6625 17.9999 11.25V3C17.9999 2.17031 17.3296 1.5 16.4999 1.5C15.6702 1.5 14.9999 2.17031 14.9999 3V11.25C14.9999 11.6625 14.6624 12 14.2499 12C13.8374 12 13.4999 11.6625 13.4999 11.25V1.5Z" fill="black"/>
</g>
<defs>
<clipPath id="clip0_2317_1406">
<rect width="24" height="24" fill="white"/>
</clipPath>
</defs>
</svg>
