<svg width="24" height="24" viewBox="0 0 24 24" fill="none" xmlns="http://www.w3.org/2000/svg">
<path d="M20.3998 11.6999V11.8237L23.0136 9.20991C23.8348 8.38866 23.8348 7.06116 23.0136 6.23991L20.0848 3.31491C19.2636 2.49366 17.9361 2.49366 17.1148 3.31491L15.6111 4.81866C15.5098 4.80741 15.4048 4.79991 15.2998 4.79991H11.0998C9.70855 4.79991 8.5648 5.84991 8.4148 7.19991H8.3998V11.6999C8.3998 12.5287 9.07105 13.1999 9.8998 13.1999C10.7286 13.1999 11.3998 12.5287 11.3998 11.6999V8.99991V8.99616V8.39991H11.9998H17.0998C17.0998 8.39991 17.0998 8.39991 17.1036 8.39991H17.3998C19.0573 8.39991 20.3998 9.74241 20.3998 11.3999V11.6999ZM12.5998 9.59991V11.6999C12.5998 13.1924 11.3923 14.3999 9.8998 14.3999C8.4073 14.3999 7.1998 13.1924 7.1998 11.6999V7.25241C5.85355 7.48491 4.7323 8.46366 4.3498 9.80991L3.73105 11.9699L0.986055 14.7149C0.164805 15.5362 0.164805 16.8637 0.986055 17.6849L3.9148 20.6137C4.73605 21.4349 6.06355 21.4349 6.8848 20.6137L8.29855 19.1999C8.3323 19.1999 8.36605 19.2037 8.3998 19.2037H14.3998C15.3936 19.2037 16.1998 18.3974 16.1998 17.4037C16.1998 17.1937 16.1623 16.9912 16.0986 16.8037H16.1998C17.1936 16.8037 17.9998 15.9974 17.9998 15.0037C17.9998 14.5237 17.8123 14.0887 17.5048 13.7662C18.4686 13.5787 19.1961 12.7312 19.1998 11.7112V11.6962C19.1961 10.5412 18.2586 9.60366 17.0998 9.60366H12.5998V9.59991Z" fill="black"/>
</svg>
