<svg width="24" height="24" viewBox="0 0 24 24" fill="none" xmlns="http://www.w3.org/2000/svg">
<g clip-path="url(#clip0_2574_989)">
<path d="M12 2.25C6.61406 2.25 2.25 6.61406 2.25 12V13.875C2.25 14.4984 1.74844 15 1.125 15C0.501562 15 0 14.4984 0 13.875V12C0 5.37188 5.37188 0 12 0C18.6281 0 24 5.37188 24 12V18.7547C24 21.0328 22.1531 22.8797 19.8703 22.8797L14.7 22.875C14.3109 23.5453 13.5844 24 12.75 24H11.25C10.0078 24 9 22.9922 9 21.75C9 20.5078 10.0078 19.5 11.25 19.5H12.75C13.5844 19.5 14.3109 19.9547 14.7 20.625L19.875 20.6297C20.9109 20.6297 21.75 19.7906 21.75 18.7547V12C21.75 6.61406 17.3859 2.25 12 2.25ZM6.75 9.75H7.5C8.32969 9.75 9 10.4203 9 11.25V16.5C9 17.3297 8.32969 18 7.5 18H6.75C5.09531 18 3.75 16.6547 3.75 15V12.75C3.75 11.0953 5.09531 9.75 6.75 9.75ZM17.25 9.75C18.9047 9.75 20.25 11.0953 20.25 12.75V15C20.25 16.6547 18.9047 18 17.25 18H16.5C15.6703 18 15 17.3297 15 16.5V11.25C15 10.4203 15.6703 9.75 16.5 9.75H17.25Z" fill="black"/>
</g>
<defs>
<clipPath id="clip0_2574_989">
<rect width="24" height="24" fill="white"/>
</clipPath>
</defs>
</svg>
