<svg width="24" height="24" viewBox="0 0 24 24" fill="none" xmlns="http://www.w3.org/2000/svg">
<path d="M12 3.75C7.02656 3.75 2.925 7.47188 2.325 12.2812C2.76562 12.1031 3.24375 12 3.75 12C4.99219 12 6 13.0078 6 14.25V20.25C6 21.4922 4.99219 22.5 3.75 22.5C1.67812 22.5 0 20.8219 0 18.75V18V15.75V13.5C0 6.87188 5.37188 1.5 12 1.5C18.6281 1.5 24 6.87188 24 13.5V15.75V18V18.75C24 20.8219 22.3219 22.5 20.25 22.5C19.0078 22.5 18 21.4922 18 20.25V14.25C18 13.0078 19.0078 12 20.25 12C20.7563 12 21.2344 12.0984 21.675 12.2812C21.075 7.47188 16.9734 3.75 12 3.75Z" fill="black"/>
</svg>
