<svg width="24" height="24" viewBox="0 0 24 24" fill="none" xmlns="http://www.w3.org/2000/svg">
<g clip-path="url(#clip0_2564_1005)">
<path d="M11.2545 0.196875C11.7139 -0.065625 12.2811 -0.065625 12.7451 0.196875L20.7983 4.79531L20.9998 4.875V4.91719L23.2451 6.20156C23.8358 6.53906 24.1264 7.23281 23.953 7.88906C23.7795 8.54531 23.1842 9.00469 22.5045 9.00469H1.49983C0.820147 9.00469 0.224834 8.54531 0.0513968 7.88906C-0.122041 7.23281 0.168584 6.53906 0.759209 6.20156L2.99983 4.91719V4.875L3.20608 4.8L11.2545 0.196875ZM2.99983 10.5H5.99983V19.5H7.87483V10.5H10.8748V19.5H13.1248V10.5H16.1248V19.5H17.9998V10.5H20.9998V19.7016C21.028 19.7156 21.0561 19.7344 21.0842 19.7531L23.3342 21.2531C23.8826 21.6187 24.1311 22.3031 23.9389 22.9359C23.7467 23.5687 23.1608 24 22.4998 24H1.49983C0.838897 24 0.257647 23.5687 0.0654593 22.9359C-0.126728 22.3031 0.117022 21.6187 0.670147 21.2531L2.92015 19.7531C2.94827 19.7344 2.9764 19.7203 3.00452 19.7016V10.5H2.99983Z" fill="black"/>
</g>
<defs>
<clipPath id="clip0_2564_1005">
<rect width="24" height="24" fill="white"/>
</clipPath>
</defs>
</svg>
