<svg width="24" height="24" viewBox="0 0 24 24" fill="none" xmlns="http://www.w3.org/2000/svg">
<path d="M22.0741 12.2571C24.1928 10.1383 24.1928 6.70707 22.0741 4.58832C20.1991 2.71332 17.2441 2.46957 15.0878 4.01082L15.0278 4.05207C14.4878 4.43832 14.3641 5.18832 14.7503 5.72457C15.1366 6.26082 15.8866 6.38832 16.4228 6.00207L16.4828 5.96082C17.6866 5.10207 19.3328 5.23707 20.3753 6.28332C21.5566 7.46457 21.5566 9.37707 20.3753 10.5583L16.1678 14.7733C14.9866 15.9546 13.0741 15.9546 11.8928 14.7733C10.8466 13.7271 10.7116 12.0808 11.5703 10.8808L11.6116 10.8208C11.9978 10.2808 11.8703 9.53082 11.3341 9.14832C10.7978 8.76582 10.0441 8.88957 9.66156 9.42582L9.62031 9.48582C8.07531 11.6383 8.31906 14.5933 10.1941 16.4683C12.3128 18.5871 15.7441 18.5871 17.8628 16.4683L22.0741 12.2571ZM2.58906 11.3796C0.470312 13.4983 0.470312 16.9296 2.58906 19.0483C4.46406 20.9233 7.41906 21.1671 9.57531 19.6258L9.63531 19.5846C10.1753 19.1983 10.2991 18.4483 9.91281 17.9121C9.52656 17.3758 8.77656 17.2483 8.24031 17.6346L8.18031 17.6758C6.97656 18.5346 5.33031 18.3996 4.28781 17.3533C3.10656 16.1683 3.10656 14.2558 4.28781 13.0746L8.49531 8.86332C9.67656 7.68207 11.5891 7.68207 12.7703 8.86332C13.8166 9.90957 13.9516 11.5558 13.0928 12.7596L13.0516 12.8196C12.6653 13.3596 12.7928 14.1096 13.3291 14.4921C13.8653 14.8746 14.6191 14.7508 15.0016 14.2146L15.0428 14.1546C16.5878 11.9983 16.3441 9.04332 14.4691 7.16832C12.3503 5.04957 8.91906 5.04957 6.80031 7.16832L2.58906 11.3796Z" fill="black"/>
</svg>
