<svg width="24" height="24" viewBox="0 0 24 24" fill="none" xmlns="http://www.w3.org/2000/svg">
<g clip-path="url(#clip0_2487_986)">
<path d="M1.45521 2.59124C1.06521 2.28374 0.498961 2.35499 0.191461 2.74499C-0.116039 3.13499 -0.0447892 3.70124 0.345211 4.00874L22.5452 21.4087C22.9352 21.7162 23.5015 21.645 23.809 21.255C24.1165 20.865 24.0452 20.2987 23.6552 19.9912L18.349 15.8325L21.7427 12.4387C23.8615 10.32 23.8615 6.88874 21.7427 4.76999C19.8677 2.89499 16.9127 2.65124 14.7565 4.19249L14.6965 4.23374C14.1565 4.61999 14.0327 5.36999 14.419 5.90624C14.8052 6.44249 15.5552 6.56999 16.0915 6.18374L16.1515 6.14249C17.3552 5.28374 19.0015 5.41874 20.044 6.46499C21.2252 7.64624 21.2252 9.55874 20.044 10.74L16.444 14.34L15.2477 13.4025C16.159 11.385 15.754 8.96624 14.1377 7.34999C12.1802 5.38874 9.09396 5.24249 6.96396 6.91124L1.45521 2.59124ZM8.96271 8.47499C10.0915 7.91624 11.5015 8.10374 12.4427 9.04874C13.1927 9.79874 13.474 10.86 13.2565 11.8425L8.96271 8.47499ZM15.2477 18.015L8.28396 12.525C8.20521 14.0175 8.74146 15.5287 9.86646 16.65C11.3252 18.1087 13.4065 18.5625 15.2515 18.0112L15.2477 18.015ZM4.37271 9.44624L2.25771 11.5612C0.138961 13.68 0.138961 17.1112 2.25771 19.23C4.13271 21.105 7.08771 21.3487 9.24396 19.8075L9.30396 19.7662C9.84396 19.38 9.96771 18.63 9.58146 18.0937C9.19521 17.5575 8.44521 17.43 7.90896 17.8162L7.84896 17.8575C6.64521 18.7162 4.99896 18.5812 3.95646 17.535C2.77521 16.35 2.77521 14.4375 3.95646 13.2562L6.27396 10.9387L4.37646 9.44249L4.37271 9.44624Z" fill="black"/>
</g>
<defs>
<clipPath id="clip0_2487_986">
<rect width="24" height="24" fill="white"/>
</clipPath>
</defs>
</svg>
