<svg width="24" height="24" viewBox="0 0 24 24" fill="none" xmlns="http://www.w3.org/2000/svg">
<path d="M7.67064 2.92489C8.08314 3.29572 8.11647 3.92489 7.74564 4.33739L4.74564 7.67072C4.5623 7.87489 4.30397 7.99572 4.02897 7.99989C3.75397 8.00406 3.49147 7.89989 3.29564 7.70822L1.6248 6.04156C1.23314 5.64989 1.23314 5.01656 1.6248 4.62906C2.01647 4.24156 2.6498 4.23739 3.0373 4.62906L3.95814 5.54989L6.25397 2.99989C6.6248 2.58739 7.25397 2.55406 7.66647 2.92489H7.67064ZM7.67064 9.59156C8.08314 9.96239 8.11647 10.5916 7.74564 11.0041L4.74564 14.3374C4.5623 14.5416 4.30397 14.6624 4.02897 14.6666C3.75397 14.6707 3.49147 14.5666 3.29564 14.3749L1.6248 12.7082C1.23314 12.3166 1.23314 11.6832 1.6248 11.2957C2.01647 10.9082 2.6498 10.9041 3.0373 11.2957L3.95814 12.2166L6.25397 9.66656C6.6248 9.25406 7.25397 9.22072 7.66647 9.59156H7.67064ZM10.6665 5.33322C10.6665 4.59572 11.2623 3.99989 11.9998 3.99989H21.3331C22.0706 3.99989 22.6665 4.59572 22.6665 5.33322C22.6665 6.07072 22.0706 6.66656 21.3331 6.66656H11.9998C11.2623 6.66656 10.6665 6.07072 10.6665 5.33322ZM10.6665 11.9999C10.6665 11.2624 11.2623 10.6666 11.9998 10.6666H21.3331C22.0706 10.6666 22.6665 11.2624 22.6665 11.9999C22.6665 12.7374 22.0706 13.3332 21.3331 13.3332H11.9998C11.2623 13.3332 10.6665 12.7374 10.6665 11.9999ZM7.9998 18.6666C7.9998 17.9291 8.59564 17.3332 9.33314 17.3332H21.3331C22.0706 17.3332 22.6665 17.9291 22.6665 18.6666C22.6665 19.4041 22.0706 19.9999 21.3331 19.9999H9.33314C8.59564 19.9999 7.9998 19.4041 7.9998 18.6666ZM3.33314 20.6666C2.22897 20.6666 1.33314 19.7707 1.33314 18.6666C1.33314 17.5624 2.22897 16.6666 3.33314 16.6666C4.4373 16.6666 5.33314 17.5624 5.33314 18.6666C5.33314 19.7707 4.4373 20.6666 3.33314 20.6666Z" fill="black"/>
</svg>
