<svg width="24" height="24" viewBox="0 0 24 24" fill="none" xmlns="http://www.w3.org/2000/svg">
<path d="M20.0625 3.53422C19.71 3.18172 19.71 2.61172 20.0625 2.26297C20.415 1.91422 20.985 1.91047 21.3337 2.26297L23.7337 4.66297C23.9025 4.83172 23.9963 5.06047 23.9963 5.30047C23.9963 5.54047 23.9025 5.76922 23.7337 5.93797L21.3337 8.33797C20.9812 8.69047 20.4112 8.69047 20.0625 8.33797C19.7137 7.98547 19.71 7.41547 20.0625 7.06672L20.925 6.20422L14.4 6.19672C13.9012 6.19672 13.5 5.79547 13.5 5.29672C13.5 4.79797 13.9012 4.39672 14.4 4.39672H20.9287L20.0625 3.53422ZM3.9375 16.1342L3.075 16.9967H9.6C10.0987 16.9967 10.5 17.398 10.5 17.8967C10.5 18.3955 10.0987 18.7967 9.6 18.7967H3.07125L3.93375 19.6592C4.28625 20.0117 4.28625 20.5817 3.93375 20.9305C3.58125 21.2792 3.01125 21.283 2.6625 20.9305L0.2625 18.5342C0.09375 18.3655 0 18.1367 0 17.8967C0 17.6567 0.09375 17.428 0.2625 17.2592L2.6625 14.8592C3.015 14.5067 3.585 14.5067 3.93375 14.8592C4.2825 15.2117 4.28625 15.7817 3.93375 16.1305L3.9375 16.1342ZM3.6 4.39672H12.6712C12.5325 4.66672 12.45 4.97047 12.45 5.29672C12.45 6.37297 13.3237 7.24672 14.4 7.24672H18.8025C18.6525 7.88422 18.825 8.57797 19.32 9.07672C20.0812 9.83797 21.315 9.83797 22.0763 9.07672L22.8 8.35297V16.3967C22.8 17.7205 21.7237 18.7967 20.4 18.7967H11.3287C11.4675 18.5267 11.55 18.223 11.55 17.8967C11.55 16.8205 10.6762 15.9467 9.6 15.9467H5.1975C5.3475 15.3092 5.175 14.6155 4.68 14.1167C3.91875 13.3555 2.685 13.3555 1.92375 14.1167L1.2 14.8405V6.79672C1.2 5.47297 2.27625 4.39672 3.6 4.39672ZM6 6.79672H3.6V9.19672C4.92375 9.19672 6 8.12047 6 6.79672ZM20.4 13.9967C19.0762 13.9967 18 15.073 18 16.3967H20.4V13.9967ZM12 15.1967C13.9875 15.1967 15.6 13.5842 15.6 11.5967C15.6 9.60922 13.9875 7.99672 12 7.99672C10.0125 7.99672 8.4 9.60922 8.4 11.5967C8.4 13.5842 10.0125 15.1967 12 15.1967Z" fill="black"/>
</svg>
