<svg width="24" height="24" viewBox="0 0 24 24" fill="none" xmlns="http://www.w3.org/2000/svg">
<path d="M2.66667 4C1.19583 4 0 5.19583 0 6.66667V17.3333C0 18.8042 1.19583 20 2.66667 20H21.3333C22.8042 20 24 18.8042 24 17.3333V6.66667C24 5.19583 22.8042 4 21.3333 4H2.66667ZM5.33333 17.3333H2.66667V14.6667C4.1375 14.6667 5.33333 15.8625 5.33333 17.3333ZM2.66667 9.33333V6.66667H5.33333C5.33333 8.1375 4.1375 9.33333 2.66667 9.33333ZM18.6667 17.3333C18.6667 15.8625 19.8625 14.6667 21.3333 14.6667V17.3333H18.6667ZM21.3333 9.33333C19.8625 9.33333 18.6667 8.1375 18.6667 6.66667H21.3333V9.33333ZM12 16C9.79167 16 8 14.2083 8 12C8 9.79167 9.79167 8 12 8C14.2083 8 16 9.79167 16 12C16 14.2083 14.2083 16 12 16Z" fill="black"/>
</svg>
