<svg width="24" height="24" viewBox="0 0 24 24" fill="none" xmlns="http://www.w3.org/2000/svg">
<path d="M2.66667 4C1.19583 4 0 5.19583 0 6.66667V17.3333C0 18.8042 1.19583 20 2.66667 20H21.3333C22.8042 20 24 18.8042 24 17.3333V6.66667C24 5.19583 22.8042 4 21.3333 4H2.66667ZM4.66667 10.6667H11.3333C11.7 10.6667 12 10.9667 12 11.3333C12 11.7 11.7 12 11.3333 12H4.66667C4.3 12 4 11.7 4 11.3333C4 10.9667 4.3 10.6667 4.66667 10.6667ZM4 15.3333C4 14.9667 4.3 14.6667 4.66667 14.6667H19.3333C19.7 14.6667 20 14.9667 20 15.3333C20 15.7 19.7 16 19.3333 16H4.66667C4.3 16 4 15.7 4 15.3333ZM15.6667 8H19C19.5542 8 20 8.44583 20 9V11C20 11.5542 19.5542 12 19 12H15.6667C15.1125 12 14.6667 11.5542 14.6667 11V9C14.6667 8.44583 15.1125 8 15.6667 8Z" fill="black"/>
</svg>
