<svg width="24" height="24" viewBox="0 0 24 24" fill="none" xmlns="http://www.w3.org/2000/svg">
<path d="M4.5 4.5C4.5 2.84531 5.84531 1.5 7.5 1.5H21C22.6547 1.5 24 2.84531 24 4.5V19.5C24 21.1547 22.6547 22.5 21 22.5H3.75C1.67812 22.5 0 20.8219 0 18.75V6C0 5.17031 0.670312 4.5 1.5 4.5C2.32969 4.5 3 5.17031 3 6V18.75C3 19.1625 3.3375 19.5 3.75 19.5C4.1625 19.5 4.5 19.1625 4.5 18.75V4.5ZM7.5 5.625V9.375C7.5 9.99844 8.00156 10.5 8.625 10.5H19.875C20.4984 10.5 21 9.99844 21 9.375V5.625C21 5.00156 20.4984 4.5 19.875 4.5H8.625C8.00156 4.5 7.5 5.00156 7.5 5.625ZM7.5 14.25C7.5 14.6625 7.8375 15 8.25 15H12.75C13.1625 15 13.5 14.6625 13.5 14.25C13.5 13.8375 13.1625 13.5 12.75 13.5H8.25C7.8375 13.5 7.5 13.8375 7.5 14.25ZM15 14.25C15 14.6625 15.3375 15 15.75 15H20.25C20.6625 15 21 14.6625 21 14.25C21 13.8375 20.6625 13.5 20.25 13.5H15.75C15.3375 13.5 15 13.8375 15 14.25ZM7.5 18.75C7.5 19.1625 7.8375 19.5 8.25 19.5H12.75C13.1625 19.5 13.5 19.1625 13.5 18.75C13.5 18.3375 13.1625 18 12.75 18H8.25C7.8375 18 7.5 18.3375 7.5 18.75ZM15 18.75C15 19.1625 15.3375 19.5 15.75 19.5H20.25C20.6625 19.5 21 19.1625 21 18.75C21 18.3375 20.6625 18 20.25 18H15.75C15.3375 18 15 18.3375 15 18.75Z" fill="black"/>
</svg>
