<svg width="24" height="24" viewBox="0 0 24 24" fill="none" xmlns="http://www.w3.org/2000/svg">
<path d="M18.5718 3.92808C17.428 2.78433 15.5718 2.78433 14.428 3.92808L5.80303 12.5531C3.82959 14.5265 3.82959 17.7234 5.80303 19.6968C7.77646 21.6703 10.9733 21.6703 12.9468 19.6968L20.0718 12.5718C20.5827 12.0609 21.4171 12.0609 21.928 12.5718C22.439 13.0828 22.439 13.9171 21.928 14.4281L14.803 21.5531C11.803 24.5531 6.94678 24.5531 3.94678 21.5531C0.946777 18.5531 0.946777 13.6968 3.94678 10.6968L12.5718 2.07183C14.7421 -0.0984864 18.2577 -0.0984864 20.428 2.07183C22.5983 4.24214 22.5983 7.75776 20.428 9.92808L12.178 18.1781C10.8374 19.5187 8.6624 19.5187 7.32178 18.1781C5.98115 16.8375 5.98115 14.6625 7.32178 13.3218L14.0718 6.57183C14.5827 6.06089 15.4171 6.06089 15.928 6.57183C16.439 7.08276 16.439 7.91714 15.928 8.42808L9.17803 15.1781C8.86397 15.4921 8.86397 16.0078 9.17803 16.3218C9.49209 16.6359 10.0077 16.6359 10.3218 16.3218L18.5718 8.07183C19.7155 6.92808 19.7155 5.07183 18.5718 3.92808Z" fill="black"/>
</svg>
