<svg width="24" height="24" viewBox="0 0 24 24" fill="none" xmlns="http://www.w3.org/2000/svg">
<g clip-path="url(#clip0_2278_1856)">
<path d="M17.0017 0.904663L14.733 3.17341L20.8267 9.26716L23.0955 6.99841C24.2674 5.82654 24.2674 3.9281 23.0955 2.75623L21.2486 0.904663C20.0767 -0.267212 18.1783 -0.267212 17.0064 0.904663H17.0017ZM13.6736 4.23279L2.74704 15.164C2.25954 15.6515 1.90329 16.2562 1.70641 16.9172L0.0470384 22.5562C-0.0701491 22.9547 0.0376634 23.3812 0.328288 23.6719C0.618913 23.9625 1.04548 24.0703 1.43923 23.9578L7.07829 22.2984C7.73923 22.1015 8.34391 21.7453 8.83141 21.2578L19.7674 10.3265L13.6736 4.23279Z" fill="black"/>
</g>
<defs>
<clipPath id="clip0_2278_1856">
<rect width="24" height="24" fill="white"/>
</clipPath>
</defs>
</svg>
