<svg width="24" height="24" viewBox="0 0 24 24" fill="none" xmlns="http://www.w3.org/2000/svg">
<path d="M20.5595 5.55935C21.1454 4.97341 21.1454 4.02185 20.5595 3.43591C19.9735 2.84998 19.022 2.84998 18.436 3.43591L3.43604 18.4359C2.8501 19.0219 2.8501 19.9734 3.43604 20.5594C4.02197 21.1453 4.97354 21.1453 5.55947 20.5594L20.5595 5.55935ZM9.0001 5.99998C9.0001 4.34529 7.65479 2.99998 6.0001 2.99998C4.34541 2.99998 3.0001 4.34529 3.0001 5.99998C3.0001 7.65466 4.34541 8.99998 6.0001 8.99998C7.65479 8.99998 9.0001 7.65466 9.0001 5.99998ZM21.0001 18C21.0001 16.3453 19.6548 15 18.0001 15C16.3454 15 15.0001 16.3453 15.0001 18C15.0001 19.6547 16.3454 21 18.0001 21C19.6548 21 21.0001 19.6547 21.0001 18Z" fill="black"/>
</svg>
