<svg width="24" height="24" viewBox="0 0 24 24" fill="none" xmlns="http://www.w3.org/2000/svg">
<g clip-path="url(#clip0_2278_1850)">
<path d="M7.72969 1.15308C7.36875 0.281208 6.41719 -0.182854 5.50781 0.0655833L1.38281 1.19058C0.567188 1.41558 0 2.15621 0 2.99996C0 14.5968 9.40313 24 21 24C21.8438 24 22.5844 23.4328 22.8094 22.6171L23.9344 18.4921C24.1828 17.5828 23.7188 16.6312 22.8469 16.2703L18.3469 14.3953C17.5828 14.0765 16.6969 14.2968 16.1766 14.939L14.2828 17.25C10.9828 15.689 8.31094 13.0171 6.75 9.71715L9.06094 7.82808C9.70312 7.30308 9.92344 6.42183 9.60469 5.65777L7.72969 1.15777V1.15308Z" fill="black"/>
</g>
<defs>
<clipPath id="clip0_2278_1850">
<rect width="24" height="24" fill="white"/>
</clipPath>
</defs>
</svg>
