<svg width="24" height="24" viewBox="0 0 24 24" fill="none" xmlns="http://www.w3.org/2000/svg">
<path d="M16.6667 5.3125V5.34167C16.4458 5.325 16.225 5.3125 16 5.3125H10.6667C9.97917 5.3125 9.3125 5.4 8.675 5.5625C8.67083 5.47917 8.66667 5.39583 8.66667 5.3125C8.66667 3.10417 10.4583 1.3125 12.6667 1.3125C14.875 1.3125 16.6667 3.10417 16.6667 5.3125ZM16 6.64583C16.1458 6.64583 16.2917 6.65 16.4333 6.65833C16.6083 6.67083 16.7833 6.6875 16.9583 6.7125C17.6917 5.85833 18.7833 5.3125 20 5.3125H21.3333L20.55 8.44167C21.2083 9.05833 21.7458 9.80833 22.1125 10.6458H22.6667C23.4042 10.6458 24 11.2417 24 11.9792V15.9792C24 16.7167 23.4042 17.3125 22.6667 17.3125H21.3333C20.9542 17.8167 20.5042 18.2667 20 18.6458V21.3125C20 22.05 19.4042 22.6458 18.6667 22.6458H17.3333C16.5958 22.6458 16 22.05 16 21.3125V19.9792H10.6667V21.3125C10.6667 22.05 10.0708 22.6458 9.33333 22.6458H8C7.2625 22.6458 6.66667 22.05 6.66667 21.3125V18.6458C5.2125 17.5542 4.22083 15.8833 4.03333 13.9792H2.83333C1.26667 13.9792 0 12.7125 0 11.1458C0 9.57917 1.26667 8.3125 2.83333 8.3125H3C3.55417 8.3125 4 8.75833 4 9.3125C4 9.86667 3.55417 10.3125 3 10.3125H2.83333C2.375 10.3125 2 10.6875 2 11.1458C2 11.6042 2.375 11.9792 2.83333 11.9792H4.13333C4.6375 9.4875 6.5375 7.5 8.97917 6.8625C9.51667 6.72083 10.0833 6.64583 10.6667 6.64583H16ZM18.6667 12.3125C18.6667 11.7583 18.2208 11.3125 17.6667 11.3125C17.1125 11.3125 16.6667 11.7583 16.6667 12.3125C16.6667 12.8667 17.1125 13.3125 17.6667 13.3125C18.2208 13.3125 18.6667 12.8667 18.6667 12.3125Z" fill="black"/>
</svg>
