<svg width="24" height="24" viewBox="0 0 24 24" fill="none" xmlns="http://www.w3.org/2000/svg">
<path d="M8.5 4.5C7.67031 4.5 7 5.17031 7 6C7 6.82969 6.32969 7.5 5.5 7.5C4.67031 7.5 4 6.82969 4 6C4 3.51562 6.01562 1.5 8.5 1.5H13.0469C16.3328 1.5 19 4.16719 19 7.45312C19 9.90938 17.4906 12.1125 15.2031 13.0031L12.25 14.1516V15C12.25 15.8297 11.5797 16.5 10.75 16.5C9.92031 16.5 9.25 15.8297 9.25 15V14.1516C9.25 12.9141 10.0094 11.8031 11.1625 11.3578L14.1156 10.2094C15.25 9.76406 16 8.67188 16 7.45312C16 5.82188 14.6781 4.5 13.0469 4.5H8.5ZM10.75 22.5C9.71406 22.5 8.875 21.6609 8.875 20.625C8.875 19.5891 9.71406 18.75 10.75 18.75C11.7859 18.75 12.625 19.5891 12.625 20.625C12.625 21.6609 11.7859 22.5 10.75 22.5Z" fill="black"/>
</svg>
