<svg width="24" height="24" viewBox="0 0 24 24" fill="none" xmlns="http://www.w3.org/2000/svg">
<path d="M2.27344 10.5001H1.875C1.25156 10.5001 0.75 9.99853 0.75 9.37509V3.37509C0.75 2.9204 1.02187 2.5079 1.44375 2.33447C1.86562 2.16103 2.34844 2.25478 2.67188 2.57822L4.62187 4.52822C8.72812 0.473529 15.3422 0.487592 19.425 4.57509C23.5266 8.67665 23.5266 15.3235 19.425 19.4251C15.3234 23.5267 8.67656 23.5267 4.575 19.4251C3.98906 18.8392 3.98906 17.8876 4.575 17.3017C5.16094 16.7157 6.1125 16.7157 6.69844 17.3017C9.62812 20.2313 14.3766 20.2313 17.3063 17.3017C20.2359 14.372 20.2359 9.62353 17.3063 6.69384C14.3906 3.77822 9.67969 3.76415 6.74531 6.64697L8.67188 8.57822C8.99531 8.90165 9.08906 9.38447 8.91562 9.80634C8.74219 10.2282 8.32969 10.5001 7.875 10.5001H2.27344Z" fill="black"/>
</svg>
