<svg width="24" height="24" viewBox="0 0 24 24" fill="none" xmlns="http://www.w3.org/2000/svg">
<path d="M10.4408 1.94067C11.0267 1.35474 11.9783 1.35474 12.5642 1.94067L18.5642 7.94067C18.9955 8.37192 19.122 9.01411 18.8877 9.57661C18.6533 10.1391 18.1095 10.5047 17.5002 10.5047H5.50017C4.89548 10.5047 4.34704 10.1391 4.11267 9.57661C3.87829 9.01411 4.00954 8.37192 4.43611 7.94067L10.4361 1.94067H10.4408ZM10.4408 22.0641L4.44079 16.0641C4.00954 15.6329 3.88298 14.9907 4.11736 14.4282C4.35173 13.8657 4.89548 13.5 5.50486 13.5H17.5002C18.1049 13.5 18.6533 13.8657 18.8877 14.4282C19.122 14.9907 18.9908 15.6329 18.5642 16.0641L12.5642 22.0641C11.9783 22.65 11.0267 22.65 10.4408 22.0641Z" fill="black"/>
</svg>
