<svg width="24" height="24" viewBox="0 0 24 24" fill="none" xmlns="http://www.w3.org/2000/svg">
<path d="M13.204 1.75C12.9832 1.29167 12.5165 1 12.004 1C11.4915 1 11.029 1.29167 10.804 1.75L8.12488 7.2625L2.14154 8.14583C1.64154 8.22083 1.22488 8.57083 1.07071 9.05C0.916545 9.52917 1.04154 10.0583 1.39988 10.4125L5.74154 14.7083L4.71654 20.7792C4.63321 21.2792 4.84154 21.7875 5.25404 22.0833C5.66654 22.3792 6.21238 22.4167 6.66238 22.1792L12.0082 19.325L17.354 22.1792C17.804 22.4167 18.3499 22.3833 18.7624 22.0833C19.1749 21.7833 19.3832 21.2792 19.2999 20.7792L18.2707 14.7083L22.6124 10.4125C22.9707 10.0583 23.0999 9.52917 22.9415 9.05C22.7832 8.57083 22.3707 8.22083 21.8707 8.14583L15.8832 7.2625L13.204 1.75Z" fill="black"/>
</svg>
