<svg width="24" height="24" viewBox="0 0 24 24" fill="none" xmlns="http://www.w3.org/2000/svg">
<path d="M9.75 7.51875C9.75 5.85469 11.1 4.5 12.7687 4.5C13.0922 4.5 13.4156 4.55156 13.725 4.65469L17.5312 5.925C18.3188 6.1875 19.1672 5.76094 19.4297 4.97812C19.6922 4.19531 19.2656 3.34219 18.4828 3.07969L14.6719 1.80937C14.0578 1.60312 13.4156 1.5 12.7687 1.5C9.44531 1.5 6.75 4.19531 6.75 7.51875V10.5H6C5.17031 10.5 4.5 11.1703 4.5 12C4.5 12.8297 5.17031 13.5 6 13.5H6.75V15.5859C6.75 16.4016 6.52969 17.2031 6.10781 17.9016L4.71562 20.2266C4.43906 20.6906 4.42969 21.2672 4.69688 21.7359C4.96406 22.2047 5.46094 22.5 6 22.5H18C18.8297 22.5 19.5 21.8297 19.5 21C19.5 20.1703 18.8297 19.5 18 19.5H8.64844L8.68125 19.4484C9.37969 18.2812 9.75 16.9453 9.75 15.5859V13.5H15C15.8297 13.5 16.5 12.8297 16.5 12C16.5 11.1703 15.8297 10.5 15 10.5H9.75V7.51875Z" fill="black"/>
</svg>
