<svg width="24" height="24" viewBox="0 0 24 24" fill="none" xmlns="http://www.w3.org/2000/svg">
<path d="M4.49996 1.5C4.49996 0.670312 5.17027 0 5.99996 0H18C18.8296 0 19.5 0.670312 19.5 1.5C19.5 2.32969 18.8296 3 18 3H16.6171L17.1515 9.94687C18.8718 10.8797 20.2312 12.4406 20.8781 14.3859L20.925 14.5266C21.0796 14.9859 21 15.4875 20.7187 15.8766C20.4375 16.2656 19.9828 16.5 19.5 16.5H4.49996C4.01715 16.5 3.56715 16.2703 3.28121 15.8766C2.99527 15.4828 2.92027 14.9812 3.07496 14.5266L3.12183 14.3859C3.76871 12.4406 5.12808 10.8797 6.8484 9.94687L7.38277 3H5.99996C5.17027 3 4.49996 2.32969 4.49996 1.5ZM10.5 18H13.5V22.5C13.5 23.3297 12.8296 24 12 24C11.1703 24 10.5 23.3297 10.5 22.5V18Z" fill="black"/>
</svg>
