<svg width="24" height="24" viewBox="0 0 24 24" fill="none" xmlns="http://www.w3.org/2000/svg">
<path d="M4.8 6.9C4.30125 6.9 3.9 6.49875 3.9 6C3.9 5.50125 4.30125 5.1 4.8 5.1C5.29875 5.1 5.7 5.50125 5.7 6C5.7 6.49875 5.29875 6.9 4.8 6.9ZM6 8.74875C7.06125 8.2875 7.8 7.23 7.8 6C7.8 4.3425 6.4575 3 4.8 3C3.1425 3 1.8 4.3425 1.8 6C1.8 7.23 2.53875 8.2875 3.6 8.74875V10.8H1.2C0.53625 10.8 0 11.3363 0 12C0 12.6638 0.53625 13.2 1.2 13.2H10.8V15.2513C9.73875 15.7125 9 16.77 9 18C9 19.6575 10.3425 21 12 21C13.6575 21 15 19.6575 15 18C15 16.77 14.2613 15.7125 13.2 15.2513V13.2H22.8C23.4638 13.2 24 12.6638 24 12C24 11.3363 23.4638 10.8 22.8 10.8H20.4V8.74875C21.4613 8.2875 22.2 7.23 22.2 6C22.2 4.3425 20.8575 3 19.2 3C17.5425 3 16.2 4.3425 16.2 6C16.2 7.23 16.9388 8.2875 18 8.74875V10.8H6V8.74875ZM20.1 6C20.1 6.49875 19.6988 6.9 19.2 6.9C18.7013 6.9 18.3 6.49875 18.3 6C18.3 5.50125 18.7013 5.1 19.2 5.1C19.6988 5.1 20.1 5.50125 20.1 6ZM12 18.9C11.5013 18.9 11.1 18.4988 11.1 18C11.1 17.5013 11.5013 17.1 12 17.1C12.4988 17.1 12.9 17.5013 12.9 18C12.9 18.4988 12.4988 18.9 12 18.9Z" fill="black"/>
</svg>
