<svg width="24" height="24" viewBox="0 0 24 24" fill="none" xmlns="http://www.w3.org/2000/svg">
<path d="M8.29984 2.07087L7.99984 2.66671H3.99984C3.26234 2.66671 2.6665 3.26254 2.6665 4.00004C2.6665 4.73754 3.26234 5.33337 3.99984 5.33337H19.9998C20.7373 5.33337 21.3332 4.73754 21.3332 4.00004C21.3332 3.26254 20.7373 2.66671 19.9998 2.66671H15.9998L15.6998 2.07087C15.4748 1.61671 15.0123 1.33337 14.5082 1.33337H9.4915C8.98734 1.33337 8.52484 1.61671 8.29984 2.07087ZM19.9998 6.66671H3.99984L4.88317 20.7917C4.94984 21.8459 5.82484 22.6667 6.879 22.6667H17.1207C18.1748 22.6667 19.0498 21.8459 19.1165 20.7917L19.9998 6.66671Z" fill="black"/>
</svg>
