<svg width="24" height="24" viewBox="0 0 24 24" fill="none" xmlns="http://www.w3.org/2000/svg">
<path d="M7.75 6.75C7.75 4.67812 9.42813 3 11.5 3C12.9953 3 14.2844 3.87187 14.8891 5.14219C15.2453 5.89219 16.1406 6.21094 16.8859 5.85469C17.6313 5.49844 17.9547 4.60313 17.5984 3.85781C16.5156 1.57969 14.1953 0 11.5 0C7.77344 0 4.75 3.02344 4.75 6.75V9H4C2.34531 9 1 10.3453 1 12V21C1 22.6547 2.34531 24 4 24H19C20.6547 24 22 22.6547 22 21V12C22 10.3453 20.6547 9 19 9H7.75V6.75Z" fill="black"/>
</svg>
