<svg width="24" height="24" viewBox="0 0 24 24" fill="none" xmlns="http://www.w3.org/2000/svg">
<path d="M3.6 7.1999C3.6 5.92686 4.10571 4.70596 5.00589 3.80579C5.90606 2.90562 7.12696 2.3999 8.4 2.3999C9.67304 2.3999 10.8939 2.90562 11.7941 3.80579C12.6943 4.70596 13.2 5.92686 13.2 7.1999C13.2 8.47294 12.6943 9.69384 11.7941 10.594C10.8939 11.4942 9.67304 11.9999 8.4 11.9999C7.12696 11.9999 5.90606 11.4942 5.00589 10.594C4.10571 9.69384 3.6 8.47294 3.6 7.1999ZM0 20.4862C0 16.7924 2.9925 13.7999 6.68625 13.7999H10.1138C13.8075 13.7999 16.8 16.7924 16.8 20.4862C16.8 21.1012 16.3013 21.5999 15.6862 21.5999H1.11375C0.49875 21.5999 0 21.1012 0 20.4862ZM22.8488 21.5999H17.6775C17.88 21.2474 18 20.8387 18 20.3999V20.0999C18 17.8237 16.9838 15.7799 15.3825 14.4074C15.4725 14.4037 15.5588 14.3999 15.6488 14.3999H17.9513C21.2925 14.3999 24 17.1074 24 20.4487C24 21.0862 23.4825 21.5999 22.8488 21.5999ZM16.2 11.9999C15.0375 11.9999 13.9875 11.5274 13.2263 10.7662C13.965 9.76865 14.4 8.5349 14.4 7.1999C14.4 6.1949 14.1525 5.24615 13.7138 4.41365C14.4113 3.90365 15.27 3.5999 16.2 3.5999C18.5213 3.5999 20.4 5.47865 20.4 7.7999C20.4 10.1212 18.5213 11.9999 16.2 11.9999Z" fill="black"/>
</svg>
