<svg width="24" height="24" viewBox="0 0 24 24" fill="none" xmlns="http://www.w3.org/2000/svg">
<path d="M0 6.66667C0 5.19583 1.19583 4 2.66667 4H13.3333C14.8042 4 16 5.19583 16 6.66667V17.3333C16 18.8042 14.8042 20 13.3333 20H2.66667C1.19583 20 0 18.8042 0 17.3333V6.66667ZM23.2958 5.49167C23.7292 5.725 24 6.175 24 6.66667V17.3333C24 17.825 23.7292 18.275 23.2958 18.5083C22.8625 18.7417 22.3375 18.7167 21.925 18.4417L17.925 15.775L17.3333 15.3792V14.6667V9.33333V8.62083L17.925 8.225L21.925 5.55833C22.3333 5.2875 22.8583 5.25833 23.2958 5.49167Z" fill="black"/>
</svg>
