<svg width="24" height="24" viewBox="0 0 24 24" fill="none" xmlns="http://www.w3.org/2000/svg">
<path d="M18.5595 7.05935C19.1454 6.47341 19.1454 5.52185 18.5595 4.93591C17.9735 4.34998 17.022 4.34998 16.436 4.93591L11.5001 9.87654L6.55947 4.9406C5.97354 4.35466 5.02197 4.35466 4.43604 4.9406C3.8501 5.52654 3.8501 6.4781 4.43604 7.06404L9.37666 12L4.44072 16.9406C3.85479 17.5265 3.85479 18.4781 4.44072 19.064C5.02666 19.65 5.97822 19.65 6.56416 19.064L11.5001 14.1234L16.4407 19.0594C17.0267 19.6453 17.9782 19.6453 18.5642 19.0594C19.1501 18.4734 19.1501 17.5219 18.5642 16.9359L13.6235 12L18.5595 7.05935Z" fill="black"/>
</svg>
