<svg width="27" height="24" viewBox="0 0 27 24" fill="none" xmlns="http://www.w3.org/2000/svg">
<path d="M25.7653 5.81639C25.4709 4.7078 24.6034 3.8347 23.502 3.53841C21.5056 3 13.5002 3 13.5002 3C13.5002 3 5.4949 3 3.49845 3.53841C2.39702 3.83475 1.52955 4.7078 1.23513 5.81639C0.700195 7.82578 0.700195 12.0182 0.700195 12.0182C0.700195 12.0182 0.700195 16.2106 1.23513 18.22C1.52955 19.3286 2.39702 20.1653 3.49845 20.4616C5.4949 21 13.5002 21 13.5002 21C13.5002 21 21.5055 21 23.502 20.4616C24.6034 20.1653 25.4709 19.3286 25.7653 18.22C26.3002 16.2106 26.3002 12.0182 26.3002 12.0182C26.3002 12.0182 26.3002 7.82578 25.7653 5.81639ZM10.882 15.8246V8.2118L17.5729 12.0183L10.882 15.8246Z" fill="black"/>
</svg>
